<?xml version="1.0" encoding="utf-8"?>
<!-- Generator: Adobe Illustrator 17.1.0, SVG Export Plug-In . SVG Version: 6.00 Build 0)  -->
<!DOCTYPE svg PUBLIC "-//W3C//DTD SVG 1.1//EN" "http://www.w3.org/Graphics/SVG/1.1/DTD/svg11.dtd">
<svg version="1.1" id="Layer_1" xmlns="http://www.w3.org/2000/svg" xmlns:xlink="http://www.w3.org/1999/xlink" x="0px" y="0px"
	 viewBox="0 0 801.2 65.1" enable-background="new 0 0 801.2 65.1" xml:space="preserve">
<g>
	<g>
		<g>
			<path fill="#FFFFFF" d="M7.9,42.5h-7v5.6H0.3V36.3h0.6v5.6h7v-5.6h0.6v11.7H7.9V42.5z"/>
			<polygon fill="#FFFFFF" points="8.8,48.4 7.6,48.4 7.6,42.8 1.2,42.8 1.2,48.4 0,48.4 0,36 1.2,36 1.2,41.6 7.6,41.6 7.6,36 
				8.8,36 8.8,48.4 			"/>
		</g>
		<g>
			<path fill="#FFFFFF" d="M12.7,46.7h0.7v1.3h-0.7V46.7z"/>
			<polygon fill="#FFFFFF" points="13.7,48.4 12.4,48.4 12.4,46.4 13.7,46.4 13.7,48.4 			"/>
		</g>
		<g>
			<path fill="#FFFFFF" d="M25,36.3h1.8L30.4,48h-0.6l-1.1-3.6h-5.5L22,48.1h-0.6L25,36.3z M23.3,43.9h5.2l-2.1-7h-0.9L23.3,43.9z"
				/>
			<path fill="#FFFFFF" d="M22.3,48.4H21L24.8,36H27l3.8,12.3h-1.3l-1.1-3.6h-5L22.3,48.4L22.3,48.4z M23.7,43.6H28l-1.9-6.3h-0.4
				L23.7,43.6L23.7,43.6z"/>
		</g>
		<g>
			<path fill="#FFFFFF" d="M36.6,48.1H36v-5l-3.8-6.7h0.7l3.4,6l3.4-6h0.7L36.6,43V48.1z"/>
			<polygon fill="#FFFFFF" points="36.9,48.4 35.7,48.4 35.7,43 31.7,36 33.1,36 36.3,41.7 39.5,36 41,36 36.9,43.2 36.9,48.4 			
				"/>
		</g>
		<g>
			<path fill="#FFFFFF" d="M46.9,47.6c2.1,0,3.3-0.7,3.3-2.9v-8.4h0.6v8.4c0,2.5-1.4,3.4-3.9,3.4c-2.3,0-3.8-0.9-3.8-3.4v-8.4h0.6
				v8.4C43.8,46.9,45,47.6,46.9,47.6z"/>
			<path fill="#FFFFFF" d="M46.9,48.5c-2.8,0-4.1-1.2-4.1-3.8V36h1.2v8.8c0,1.8,0.9,2.5,2.9,2.5c2.1,0,3-0.8,3-2.5V36h1.2v8.8
				C51.2,47.3,49.8,48.5,46.9,48.5L46.9,48.5z"/>
		</g>
		<g>
			<path fill="#FFFFFF" d="M55,36.3h1.4L62,47.5h0.5V36.3H63v11.7h-1.4L56,36.9h-0.4v11.1H55V36.3z"/>
			<polygon fill="#FFFFFF" points="63.3,48.4 61.4,48.4 55.9,37.4 55.9,48.4 54.6,48.4 54.6,36 56.6,36 62.1,47 62.1,36 63.3,36 
				63.3,48.4 			"/>
		</g>
		<g>
			<path fill="#FFFFFF" d="M65.6,36.3h8.4v0.6h-3.9v11.1h-0.6V36.9h-3.9V36.3z"/>
			<polygon fill="#FFFFFF" points="70.4,48.4 69.2,48.4 69.2,37.2 65.3,37.2 65.3,36 74.3,36 74.3,37.2 70.4,37.2 70.4,48.4 			"/>
		</g>
		<g>
			<path fill="#FFFFFF" d="M79,36.3h1.8L84.3,48h-0.6l-1.1-3.6h-5.5L76,48.1h-0.6L79,36.3z M77.3,43.9h5.2l-2.1-7h-0.9L77.3,43.9z"
				/>
			<path fill="#FFFFFF" d="M76.2,48.4h-1.3L78.7,36H81l3.8,12.3h-1.3l-1.1-3.6h-5L76.2,48.4L76.2,48.4z M77.7,43.6H82L80,37.2h-0.4
				L77.7,43.6L77.7,43.6z"/>
		</g>
		<g>
			<path fill="#FFFFFF" d="M87.4,36.3h1.3l4.1,10.8L97,36.3h1.3v11.7h-0.6V36.9h-0.2l-4.2,10.8h-0.8l-4.1-10.8h-0.2v11.1h-0.6V36.3z
				"/>
			<polygon fill="#FFFFFF" points="98.6,48.4 97.3,48.4 97.3,38 93.5,48 92.2,48 88.4,38 88.4,48.4 87.1,48.4 87.1,36 89,36 
				92.8,46.2 96.7,36 98.6,36 98.6,48.4 			"/>
		</g>
		<g>
			<path fill="#FFFFFF" d="M102.4,36.3h0.6v11.7h-0.6V36.3z"/>
			<polygon fill="#FFFFFF" points="103.3,48.4 102.1,48.4 102.1,36 103.3,36 103.3,48.4 			"/>
		</g>
		<g>
			<path fill="#FFFFFF" d="M107.1,36.3h6.8v0.6h-6.2v4.8h5.2v0.6h-5.2v5.2h6.2v0.6h-6.8V36.3z"/>
			<polygon fill="#FFFFFF" points="114.3,48.4 106.8,48.4 106.8,36 114.3,36 114.3,37.2 108.1,37.2 108.1,41.4 113.3,41.4 
				113.3,42.6 108.1,42.6 108.1,47.2 114.3,47.2 114.3,48.4 			"/>
		</g>
		<g>
			<path fill="#FFFFFF" d="M117.6,36.3h1.4l5.6,11.1h0.5V36.3h0.6v11.7h-1.4l-5.6-11.1h-0.4v11.1h-0.6V36.3z"/>
			<polygon fill="#FFFFFF" points="125.9,48.4 124,48.4 118.5,37.4 118.5,48.4 117.2,48.4 117.2,36 119.2,36 124.7,47 124.7,36 
				125.9,36 125.9,48.4 			"/>
		</g>
		<g>
			<path fill="#FFFFFF" d="M128.2,36.3h8.4v0.6h-3.9v11.1h-0.6V36.9h-3.9V36.3z"/>
			<polygon fill="#FFFFFF" points="133,48.4 131.7,48.4 131.7,37.2 127.8,37.2 127.8,36 136.9,36 136.9,37.2 133,37.2 133,48.4 			
				"/>
		</g>
		<g>
			<path fill="#FFFFFF" d="M138.4,42.2c0-3.8,0.9-6.1,4.5-6.1c3.6,0,4.5,2.2,4.5,6.1c0,4-0.9,6-4.5,6
				C139.2,48.2,138.4,46.1,138.4,42.2z M146.7,42.2c0-3.5-0.7-5.5-3.8-5.5c-3.2,0-3.8,2-3.8,5.5c0,3.5,0.6,5.4,3.8,5.4
				C146.1,47.6,146.7,45.9,146.7,42.2z"/>
			<path fill="#FFFFFF" d="M142.9,48.5c-4,0-4.8-2.5-4.8-6.3c0-3.3,0.6-6.4,4.8-6.4c4.2,0,4.8,3.1,4.8,6.4
				C147.7,46.1,146.9,48.5,142.9,48.5L142.9,48.5z M142.9,37.1c-2.6,0-3.5,1.3-3.5,5.2c0,3.4,0.5,5.1,3.5,5.1c2.7,0,3.5-1.1,3.5-5.1
				C146.4,38.4,145.5,37.1,142.9,37.1L142.9,37.1z"/>
		</g>
		<g>
			<path fill="#FFFFFF" d="M155.7,48.1V36.3h4.3c2.9,0,3.9,2.7,3.9,5.7c0,2.9-1,6-3.9,6H155.7z M160,36.9h-3.7v10.6h3.7
				c2.5,0,3.3-2.9,3.3-5.5C163.3,39.5,162.5,36.9,160,36.9z"/>
			<path fill="#FFFFFF" d="M160,48.4h-4.7V36h4.7c2.7,0,4.2,2.2,4.2,6C164.3,46,162.7,48.4,160,48.4L160,48.4z M156.6,47.2h3.4
				c2.7,0,3-3.9,3-5.1c0-1.4-0.3-4.8-3-4.8h-3.4V47.2L156.6,47.2z"/>
		</g>
		<g>
			<path fill="#FFFFFF" d="M167.4,36.3h6.8v0.6h-6.2v4.8h5.2v0.6h-5.2v5.2h6.2v0.6h-6.8V36.3z"/>
			<polygon fill="#FFFFFF" points="174.6,48.4 167.1,48.4 167.1,36 174.6,36 174.6,37.2 168.4,37.2 168.4,41.4 173.6,41.4 
				173.6,42.6 168.4,42.6 168.4,47.2 174.6,47.2 174.6,48.4 			"/>
		</g>
		<g>
			<path fill="#FFFFFF" d="M189.1,47.9c0,0-1.8,0.3-3.1,0.3c-3.4,0-4.2-2.2-4.2-6c0-3.6,0.6-6.1,4.2-6.1c1.6,0,3.1,0.3,3.1,0.3
				l0,0.6c0,0-1.7-0.3-3-0.3c-3.1,0-3.5,2.2-3.5,5.5c0,3.3,0.5,5.4,3.5,5.4c1.2,0,3-0.3,3-0.3L189.1,47.9z"/>
			<path fill="#FFFFFF" d="M186,48.5c-3.7,0-4.5-2.5-4.5-6.3c0-3.2,0.3-6.4,4.5-6.4c1.6,0,3.1,0.3,3.2,0.3l0.3,0.1l-0.1,1.2
				l-0.4-0.1c0,0-1.7-0.3-3-0.3c-2.7,0-3.2,1.7-3.2,5.2c0,3.4,0.5,5.1,3.2,5.1c1.1,0,3-0.3,3-0.3l0.3-0.1l0.1,1.2l-0.3,0.1
				C189.1,48.2,187.4,48.5,186,48.5L186,48.5z"/>
		</g>
		<g>
			<path fill="#FFFFFF" d="M196,47.6c2.1,0,3.3-0.7,3.3-2.9v-8.4h0.6v8.4c0,2.5-1.4,3.4-3.9,3.4c-2.3,0-3.8-0.9-3.8-3.4v-8.4h0.6
				v8.4C192.8,46.9,194.1,47.6,196,47.6z"/>
			<path fill="#FFFFFF" d="M196,48.5c-2.8,0-4.1-1.2-4.1-3.8V36h1.2v8.8c0,1.8,0.9,2.5,2.9,2.5c2.1,0,3-0.8,3-2.5V36h1.2v8.8
				C200.3,47.3,198.9,48.5,196,48.5L196,48.5z"/>
		</g>
		<g>
			<path fill="#FFFFFF" d="M204,48.1V36.3h0.6v11.1h5.7v0.6H204z"/>
			<polygon fill="#FFFFFF" points="210.7,48.4 203.7,48.4 203.7,36 205,36 205,47.2 210.7,47.2 210.7,48.4 			"/>
		</g>
		<g>
			<path fill="#FFFFFF" d="M213.6,36.3h0.6v11.7h-0.6V36.3z"/>
			<polygon fill="#FFFFFF" points="214.5,48.4 213.3,48.4 213.3,36 214.5,36 214.5,48.4 			"/>
		</g>
		<g>
			<path fill="#FFFFFF" d="M220.8,36.3h1.8l3.6,11.7h-0.6l-1.1-3.6h-5.5l-1.1,3.6h-0.6L220.8,36.3z M219.1,43.9h5.2l-2.1-7h-0.9
				L219.1,43.9z"/>
			<path fill="#FFFFFF" d="M218.1,48.4h-1.3l3.8-12.4h2.2l3.8,12.3h-1.3l-1.1-3.6h-5L218.1,48.4L218.1,48.4z M219.5,43.6h4.3
				l-1.9-6.3h-0.4L219.5,43.6L219.5,43.6z"/>
		</g>
		<g>
			<path fill="#FFFFFF" d="M235.8,47.9c0,0-1.8,0.3-3.1,0.3c-3.4,0-4.2-2.2-4.2-6c0-3.6,0.6-6.1,4.2-6.1c1.6,0,3.1,0.3,3.1,0.3
				l0,0.6c0,0-1.7-0.3-3-0.3c-3.1,0-3.5,2.2-3.5,5.5c0,3.3,0.5,5.4,3.5,5.4c1.2,0,3-0.3,3-0.3L235.8,47.9z"/>
			<path fill="#FFFFFF" d="M232.7,48.5c-3.7,0-4.5-2.5-4.5-6.3c0-3.2,0.3-6.4,4.5-6.4c1.6,0,3.1,0.3,3.2,0.3l0.3,0.1l-0.1,1.2
				l-0.4-0.1c0,0-1.7-0.3-3-0.3c-2.7,0-3.2,1.7-3.2,5.2c0,3.4,0.5,5.1,3.2,5.1c1.1,0,3-0.3,3-0.3l0.3-0.1l0.1,1.2l-0.3,0.1
				C235.8,48.2,234.1,48.5,232.7,48.5L232.7,48.5z"/>
		</g>
		<g>
			<path fill="#FFFFFF" d="M241.6,36.3h1.8l3.6,11.7h-0.6l-1.1-3.6h-5.5l-1.1,3.6H238L241.6,36.3z M239.9,43.9h5.2l-2.1-7H242
				L239.9,43.9z M244.1,32.5l0.3,0.5l-3.2,1.5l-0.3-0.5L244.1,32.5z"/>
			<path fill="#FFFFFF" d="M238.8,48.4h-1.3l3.8-12.4h2.2l3.8,12.3h-1.3l-1.1-3.6h-5L238.8,48.4L238.8,48.4z M240.3,43.6h4.3
				l-1.9-6.3h-0.4L240.3,43.6L240.3,43.6z M241,34.9l-0.6-1l3.8-1.9l0.6,1.1L241,34.9L241,34.9z"/>
		</g>
		<g>
			<path fill="#FFFFFF" d="M250.1,36.3h1.4l5.6,11.1h0.5V36.3h0.6v11.7h-1.4l-5.6-11.1h-0.4v11.1h-0.6V36.3z"/>
			<polygon fill="#FFFFFF" points="258.4,48.4 256.5,48.4 251,37.4 251,48.4 249.8,48.4 249.8,36 251.7,36 257.2,47 257.2,36 
				258.4,36 258.4,48.4 			"/>
		</g>
	</g>
	<g>
		<rect x="591.1" y="17.3" fill="#FFFFFF" width="0.7" height="43.2"/>
		<g>
			<polygon fill="#FFFFFF" points="282.9,23.5 286.8,23.5 282.9,23.5 			"/>
			<polygon fill="#FFFFFF" points="310.4,23.5 314.3,23.5 310.4,23.5 			"/>
			<polygon fill="#FFFFFF" points="310.7,23.5 310.7,23.5 314.3,23.5 312.6,23.5 			"/>
			<path fill="#FFFFFF" d="M287.1,20.1l-1,0.4l0.8,0.6C286.9,20.8,287,20.5,287.1,20.1z"/>
			<polygon fill="#FFFFFF" points="284.6,23.5 282.9,23.5 282.9,23.5 286.7,23.5 286.7,23.5 			"/>
			<path fill="#FFFFFF" d="M286.7,22.5c0-0.4,0.1-0.9,0.2-1.3l-0.8-0.6l-0.8,0.3l1.2,1l-3.6,1.6h1.7L286.7,22.5z"/>
			<path fill="#FFFFFF" d="M310.5,21.1c0.1,0.5,0.1,0.9,0.2,1.4l1.9,0.9h1.7l-3.4-1.5l1.1-1l-0.9-0.4L310.5,21.1z"/>
			<polygon fill="#FFFFFF" points="310.7,23.5 312.6,23.5 310.7,23.5 			"/>
			<rect x="306.2" y="14" fill="#FFFFFF" width="0" height="0"/>
			<path fill="#FFFFFF" d="M306.2,14L306.2,14C306.2,14,306.2,14,306.2,14L306.2,14z"/>
			<polygon fill="#FFFFFF" points="289.3,15.8 289.3,15.8 289.3,15.8 			"/>
			<path fill="#FFFFFF" d="M294.5,12.1l1-2.3l-0.6-0.7l-1.4,3.5C293.7,12.4,294.1,12.3,294.5,12.1z"/>
			<path fill="#FFFFFF" d="M303.7,12.4l-1.3-3.1l-0.7,0.8l0.7,1.8C302.8,12.1,303.3,12.3,303.7,12.4z"/>
			<polygon fill="#FFFFFF" points="286.1,20.6 285.4,20 284.6,20.4 285.3,20.9 			"/>
			<path fill="#FFFFFF" d="M289.3,15.8L289.3,15.8l-0.9-0.1l0.3,0.8C289,16.3,289.2,16.1,289.3,15.8z"/>
			<path fill="#FFFFFF" d="M291.9,13.5l-0.8-0.3l0.1,0.8C291.4,13.8,291.6,13.6,291.9,13.5z"/>
			<polygon fill="#FFFFFF" points="311.1,20.6 312,21 312.7,20.4 311.9,20 			"/>
			<path fill="#FFFFFF" d="M308.2,16l0.1-0.2l-0.2,0C308.1,15.9,308.1,16,308.2,16z"/>
			<polygon fill="#FFFFFF" points="301.7,10.2 302.4,9.3 302.1,8.5 301.3,9.3 			"/>
			<polygon fill="#FFFFFF" points="295.4,9.8 295.8,9 295.2,8.3 294.8,9.1 			"/>
			<path fill="#FFFFFF" d="M306.1,14L306.1,14l0.1-0.9l-0.8,0.3C305.7,13.6,305.9,13.8,306.1,14z"/>
			<rect x="310.4" y="23.5" fill="#FFFFFF" width="0.3" height="0"/>
			<path fill="#FFFFFF" d="M287.3,22.2c-0.2,0-0.3,0-0.4,0l-0.1,0.6l0,0.6h0.4c0,0,0-0.1,0-0.1C287.2,23,287.2,22.6,287.3,22.2z"/>
			<polygon fill="#FFFFFF" points="286.7,23.5 286.7,23.5 286.8,23.5 			"/>
			<path fill="#FFFFFF" d="M298.7,11.9c1.4,0,2.8,0.3,4.1,0.7l-0.3-0.7c-0.8-0.3-1.6-0.4-2.4-0.5c-0.2,0-0.3,0-0.5,0h0
				c-0.3,0-0.6,0-0.8,0c-0.4,0-0.8,0-1.2,0.1h0c-0.1,0-0.3,0-0.4,0.1c-0.9,0.1-1.8,0.3-2.6,0.7l-0.3,0.8
				C295.5,12.3,297.1,11.9,298.7,11.9z"/>
			<path fill="#FFFFFF" d="M287.8,19.8l-0.7,0.3c-0.1,0.4-0.2,0.7-0.2,1.1l0.5,0.4C287.5,21,287.6,20.4,287.8,19.8z"/>
			<path fill="#FFFFFF" d="M310.4,23.5L310.4,23.5l-0.1-0.6l-0.1-0.6c-0.1,0-0.1,0-0.2,0c0,0.4,0.1,0.8,0.1,1.2c0,0,0,0.1,0,0.1
				L310.4,23.5L310.4,23.5z"/>
			<path fill="#FFFFFF" d="M309.6,19.9c0.2,0.5,0.3,1.1,0.4,1.7l0.5-0.4c-0.1-0.3-0.1-0.6-0.2-0.9L309.6,19.9z"/>
			<polygon fill="#FFFFFF" points="286.8,23.5 286.8,22.8 286.8,23.5 			"/>
			<polygon fill="#FFFFFF" points="310.4,23.5 310.4,23.5 310.3,22.8 			"/>
			<path fill="#FFFFFF" d="M304,13.3c0.3,0.1,0.5,0.3,0.8,0.4l0.7-0.3l0,0c-0.6-0.4-1.1-0.7-1.8-1L304,13.3z"/>
			<path fill="#FFFFFF" d="M288.2,18.8c0.3-0.6,0.6-1.1,0.9-1.7l-0.3-0.6l0,0c-0.6,0.8-1,1.7-1.4,2.6L288.2,18.8z"/>
			<path fill="#FFFFFF" d="M307.9,16.6c0.5,0.6,0.9,1.3,1.2,2l0.8,0.3c-0.4-0.9-0.8-1.8-1.4-2.6l-0.5,0L307.9,16.6z"/>
			<path fill="#FFFFFF" d="M292.6,13.7c0.2-0.1,0.3-0.2,0.5-0.3l0.4-0.8c-0.5,0.3-1,0.5-1.5,0.9l0,0L292.6,13.7z"/>
			<path fill="#FFFFFF" d="M307.3,15.9l0.2,0l0.2-0.4c-0.5-0.5-1-1-1.5-1.5l-0.1,0.7C306.6,15.1,307,15.5,307.3,15.9z"/>
			<path fill="#FFFFFF" d="M289.3,15.8l0.7,0c0.4-0.4,0.7-0.8,1.1-1.1l0-0.5l-0.1-0.1h0C290.5,14.6,289.9,15.2,289.3,15.8z"/>
			<path fill="#FFFFFF" d="M286.9,21.2c-0.1,0.4-0.1,0.9-0.2,1.3l0.2-0.1l0,0.4l0.1-0.6c0.1,0,0.2,0,0.4,0c0-0.2,0-0.4,0.1-0.6
				L286.9,21.2z"/>
			<path fill="#FFFFFF" d="M286.7,22.5c0,0.3,0,0.6,0,0.9c0,0,0,0.1,0,0.1h0.1l0.1-0.6l0-0.4L286.7,22.5z"/>
			<polygon fill="#FFFFFF" points="310.4,23.5 310.4,23.5 310.7,23.5 310.7,23.5 			"/>
			<path fill="#FFFFFF" d="M310,22.2c0.1,0,0.1,0,0.2,0l0.1,0.6l0-0.4l0.4,0.2c0-0.5-0.1-1-0.2-1.4l-0.5,0.4
				C310,21.8,310,22,310,22.2z"/>
			<path fill="#FFFFFF" d="M310.3,22.8l0.1,0.6l0.3,0c0,0,0-0.1,0-0.1c0-0.3,0-0.5,0-0.8l-0.4-0.2L310.3,22.8z"/>
			<path fill="#FFFFFF" d="M308.5,16.5c-0.1-0.1-0.2-0.3-0.3-0.4l-0.2,0.4L308.5,16.5z"/>
			<path fill="#FFFFFF" d="M291.2,14.2l0,0.5c0,0,0.1-0.1,0.1-0.1L291.2,14.2z"/>
			
				<rect x="305.5" y="14.1" transform="matrix(-0.9274 0.3741 -0.3741 -0.9274 594.7355 -87.2322)" fill="#FFFFFF" width="0.7" height="0"/>
			<path fill="#FFFFFF" d="M307.4,16.1l0.1-0.1l-0.2,0C307.4,16,307.4,16,307.4,16.1z"/>
			<path fill="#FFFFFF" d="M306.2,14C306.2,14,306.2,14,306.2,14l-0.7,0.2c0.2,0.2,0.4,0.3,0.6,0.5L306.2,14z"/>
			<path fill="#FFFFFF" d="M288.8,16.5C288.8,16.5,288.8,16.5,288.8,16.5L288.8,16.5L288.8,16.5z"/>
			<path fill="#FFFFFF" d="M290.1,15.8l-0.7,0c0,0,0,0,0,0l0.5,0.3C289.9,16,290,15.9,290.1,15.8z"/>
			<polygon fill="#FFFFFF" points="305.4,13.4 305.4,13.4 305.4,13.4 			"/>
			<path fill="#FFFFFF" d="M291.9,13.4C291.9,13.5,291.9,13.5,291.9,13.4L291.9,13.4L291.9,13.4z"/>
			<path fill="#FFFFFF" d="M294.5,12.1c-0.4,0.1-0.7,0.3-1.1,0.5l-0.4,0.8c0.4-0.2,0.7-0.4,1.1-0.5L294.5,12.1z"/>
			<path fill="#FFFFFF" d="M291.9,13.5l0,0.7c0.2-0.1,0.4-0.3,0.6-0.4L291.9,13.5z"/>
			<path fill="#FFFFFF" d="M310.2,20.2c-0.1-0.4-0.2-0.8-0.4-1.2l-0.8-0.3c0.2,0.4,0.3,0.8,0.5,1.2L310.2,20.2z"/>
			<path fill="#FFFFFF" d="M308,16.5l-0.2,0c0,0,0.1,0.1,0.1,0.2L308,16.5z"/>
			<path fill="#FFFFFF" d="M304,13.3l-0.3-0.8c-0.4-0.2-0.8-0.3-1.2-0.5l0.3,0.7C303.2,12.8,303.6,13,304,13.3z"/>
			<path fill="#FFFFFF" d="M305.4,13.4l-0.7,0.3c0.2,0.1,0.4,0.3,0.6,0.4L305.4,13.4z"/>
			<path fill="#FFFFFF" d="M288.8,16.5l0.3,0.6c0.1-0.2,0.3-0.4,0.4-0.6L288.8,16.5z"/>
			<path fill="#FFFFFF" d="M288.2,18.8l-0.8,0.3c-0.1,0.3-0.2,0.6-0.3,1l0.7-0.3C287.9,19.5,288,19.1,288.2,18.8z"/>
			<path fill="#FFFFFF" d="M291.2,14.2l0-0.2c0,0,0,0-0.1,0h0L291.2,14.2z"/>
			<path fill="#FFFFFF" d="M310.4,23.5h-0.3c0,0,0,0.1,0,0.1h0.6c0,0,0-0.1,0-0.1L310.4,23.5L310.4,23.5z"/>
			<path fill="#FFFFFF" d="M286.8,23.5h-0.1c0,0,0,0.1,0,0.1h0.6c0,0,0-0.1,0-0.1H286.8L286.8,23.5z"/>
			<path fill="#FFFFFF" d="M308,15.9c-0.1-0.1-0.2-0.3-0.3-0.4l-0.2,0.4L308,15.9z"/>
			<rect x="307.6" y="15.5" fill="#FFFFFF" width="0" height="0.5"/>
			<path fill="#FFFFFF" d="M289.5,16.6c0.1-0.1,0.2-0.3,0.3-0.4l-0.5-0.3c-0.2,0.2-0.4,0.5-0.5,0.7l0,0L289.5,16.6z"/>
			<path fill="#FFFFFF" d="M291.4,14.6c0.2-0.2,0.4-0.3,0.6-0.5l0-0.7l0,0c-0.2,0.2-0.5,0.4-0.7,0.5l0,0.2L291.4,14.6z"/>
			<path fill="#FFFFFF" d="M307.4,16.1c0.1,0.1,0.2,0.3,0.3,0.4l0.2,0l0.2-0.4c0-0.1-0.1-0.1-0.1-0.2l-0.5,0L307.4,16.1z"/>
			
				<rect x="307.4" y="16" transform="matrix(-0.4075 0.9132 -0.9132 -0.4075 447.3662 -258.2888)" fill="#FFFFFF" width="0.1" height="0"/>
			<path fill="#FFFFFF" d="M305.3,14.1c0.1,0,0.1,0.1,0.2,0.1l0.6-0.2c-0.2-0.2-0.5-0.4-0.7-0.5l0,0L305.3,14.1z"/>
			<path fill="#FFFFFF" d="M297.5,11.4c-0.1,0-0.3,0-0.4,0.1C297.2,11.4,297.4,11.4,297.5,11.4L297.5,11.4z"/>
			<path fill="#FFFFFF" d="M299.5,11.4c0.2,0,0.3,0,0.5,0C299.8,11.4,299.7,11.4,299.5,11.4L299.5,11.4z"/>
			<path fill="#FFFFFF" d="M304.4,21.1l-4-1.7c0,0.1-0.1,0.3-0.1,0.4l3.6,1.5l5.3,2.3h1.1L304.4,21.1z"/>
			<path fill="#FFFFFF" d="M297.6,19l-4.9,2.1l-5.9,2.5h1.1l5.3-2.3l4.4-1.9C297.6,19.3,297.6,19.2,297.6,19z"/>
			<path fill="#FFFFFF" d="M307,40.1c0.5,1.1-0.3,1.7-0.4,2.6c0,1.5,1.7,1.6,2.1,0.1C309.1,41.7,308.1,40.6,307,40.1z M308.6,42.8
				c-0.4,1.2-1.8,1.1-1.7-0.2c0-0.8,0.8-1.3,0.4-2.2C308.2,40.9,308.8,41.8,308.6,42.8z"/>
			<path fill-rule="evenodd" clip-rule="evenodd" fill="#FFFFFF" d="M307.6,41.3c0.2,0.6-0.3,1-0.4,1.5c0,0.8,0.9,0.8,1,0
				C308.4,42.2,308,41.6,307.6,41.3L307.6,41.3z"/>
			<path fill="#FFFFFF" d="M300.7,34.6c0-0.5-0.3-0.9-0.6-0.5l0-0.4c0-0.3-0.7-0.4-0.7,0.2c-0.1-0.2-0.5-0.2-0.5,0.1v0.8
				c0,0.2,0.2,0.5,0.5,0.5l0,0.7l-0.2,0.2h1.2c0.2,0,0.2-0.2,0-0.2l0-0.6C300.6,35.4,300.7,35.2,300.7,34.6z M300.5,35
				c0,0.1-0.2,0.3-0.3,0.3l0,0.8l-0.6,0l0-0.9c-0.3,0-0.5-0.2-0.5-0.5l0-0.6c0-0.2,0.3-0.3,0.3,0v0.5c0,0.2,0.1,0.2,0.2,0l0-0.8
				c0-0.2,0.4-0.2,0.4,0v1c0,0.2,0.2,0.2,0.2-0.1l0-0.4c0-0.2,0.3-0.3,0.3,0V35z"/>
			<path fill="#FFFFFF" d="M301.3,15.6c-0.4-0.6-1.1-0.6-1.4-0.2c-0.1,0.1-0.2,0.2-0.3,0.4l0-0.1c-0.2-1.4-1.1-1.2-1.8-2.6
				c-0.4,0.9-0.5,1.8,0,2.8c0,0,0,0,0,0.1c-0.7-0.4-1.4-0.3-1.7,0.3c-0.2,0.5-0.4,1-0.7,1.5c0.6-0.3,1.4-1,1.9-0.9
				c0.4,0,1,0.1,1.3,0.4c0,0,0,0,0,0c0.1,0.2,0.4,0.4,0.7,0.3c0.4-0.4,0.6-0.6,0.8-0.8c0.1-0.2,0.5-0.2,0.8,0.2
				c0.6,0.7,1.9,0.5,2.2,0C302.5,16.8,302.1,16.8,301.3,15.6z M296,17.1c0.2-0.3,0.3-0.5,0.5-0.8c0.4-0.5,1-0.2,1.7,0.3
				C297.4,16.4,296.7,16.5,296,17.1z M298.4,16.3c-0.2-0.2-0.3-0.5-0.4-0.8c-0.2-0.4-0.2-0.9-0.1-1.3c0.3,0.6,1.1,0.7,1.2,1.5
				C299,16.6,298.8,16.8,298.4,16.3z M300.8,16.4c-0.3-0.4-0.5-0.4-0.7-0.2c-0.3,0.4-0.7,0.8-1.2,1.1c0-0.1,0-0.2,0-0.3
				c0.2-0.5,0.6-1,1.2-1.4c0.3-0.2,0.6-0.2,0.9,0c0.5,0.4,0.8,1,1.2,1.3C301.6,17.2,301.2,16.9,300.8,16.4z"/>
			<path fill-rule="evenodd" clip-rule="evenodd" fill="#FFFFFF" d="M299.8,20.5l0.1,0.3c0,0.4,0.3,0.5,0.3,0.5s0.3,0.1,0.6,0
				c0.2-0.1,0.5-0.2,0.7-0.4h0.7c0.2,0.1,0.3,0.2,0.4,0.2c0.2,0,0.7-0.1,0.7,0c0,0.1-0.2,0.3-0.4,0.3c-0.2,0-0.3-0.1-0.3,0
				c-0.1,0.1-0.1,0.2-0.2,0.2c-0.2,0-0.3,0.2-0.5,0.3c-0.2,0.1-0.3,0.1-0.3,0.1s0.5,0.1,0.7,0.2c0.2,0,0.3-0.1,0.5,0
				c0.2,0.1,0.3,0.1,0.3,0.2c0,0.1,0,0.3-0.2,0.2c-0.2-0.2-0.4-0.1-0.6-0.2c-0.3-0.1-0.5-0.1-0.8-0.1c-0.3,0-0.3-0.1-0.6-0.2
				c-0.3,0-0.4,0.2-0.8,0.2c-0.4,0-0.6-0.2-0.7,0c0,0,0.2,0,0.3,0.2c0,0,0.4,0.1,0.6,0.2c0.1,0.2,0.2,0.3-0.1,0.2
				c-0.3-0.1-0.6,0.2-0.8,0c-0.2-0.2-0.2-0.2-0.4-0.2c-0.2,0-0.3,0.1-0.2,0.2c0,0.1,0.1,0.3-0.1,0.2c-0.2-0.1-0.1-0.1-0.1-0.2
				c0-0.2-0.1-0.2-0.3-0.2c-0.1,0-0.4,0.3-0.7,0.2c0,0-0.2,0.1-0.5,0c-0.2-0.1-0.3-0.1-0.2-0.2c0.2-0.1,0.2-0.1,0.4-0.1
				c0.2,0,0.2,0,0.3-0.1c0.1-0.1,0.1-0.2,0.1-0.2s-0.2,0-0.3,0c-0.2,0.1-0.3,0.2-0.6,0c-0.3-0.1-0.3-0.1-0.5-0.1
				c-0.2,0-0.4,0.2-0.7,0.1c0,0-0.3,0-0.5,0.1c-0.1,0.1-0.2,0.1-0.5,0.1c-0.2,0-0.1,0.1-0.4,0.1c-0.3,0.1-0.3-0.2-0.1-0.3
				c0.1-0.1,0.2-0.2,0.5-0.2c0.2,0,0.3-0.1,0.5-0.1c0.1,0,0.3-0.1,0.3-0.1l0,0l0-0.1l0,0c0,0-0.2-0.1-0.3-0.2c-0.1-0.1-0.3,0-0.4,0
				c-0.1-0.1-0.1-0.2-0.1-0.2s-0.3,0-0.5-0.1c-0.2,0-0.2-0.1-0.3-0.1c0,0,0.1-0.2,0.2-0.2c0.1,0,0.3,0.1,0.5,0.1
				c0.2,0,0.2,0,0.4-0.1c0.2-0.1,0.5-0.1,0.7,0c0.2,0,0.3,0.1,0.6,0.3l0,0l0,0c0.2,0.1,0.5,0.2,0.7,0.2c0.2,0,0.2,0,0.2,0
				s1.3-0.1,1.2-0.5l0-0.4L299.8,20.5z M300.5,21.9c0,0,0.4-0.1,0.5-0.2c0.1-0.1,0.3-0.4,0.5-0.5c0.2,0,0.4,0,0.6,0.1
				c0,0-0.4,0.2-0.5,0.3c-0.2,0.1-0.4,0.3-0.7,0.3C300.7,21.9,300.7,22,300.5,21.9L300.5,21.9L300.5,21.9z M296.9,21.9
				c0,0-0.3,0.2-0.5,0.1c-0.2-0.1-0.4-0.2-0.5-0.3c-0.2-0.1-0.3-0.1-0.4-0.2c-0.1-0.1-0.1-0.1-0.3-0.2c0,0,0.3,0,0.4,0
				c0.1,0,0.2-0.1,0.4,0.1c0.2,0.2,0.4,0.3,0.6,0.4C296.8,21.9,296.9,21.9,296.9,21.9L296.9,21.9L296.9,21.9z"/>
			<path fill="#FFFFFF" d="M299,17.4c-0.9,0-1.7,0.8-1.7,1.8c0,1,0.8,1.8,1.7,1.8c0.9,0,1.7-0.8,1.7-1.8
				C300.7,18.2,299.9,17.4,299,17.4z M299,20.5c-0.7,0-1.2-0.6-1.2-1.3c0-0.7,0.5-1.2,1.2-1.2c0.7,0,1.2,0.6,1.2,1.2
				C300.2,19.9,299.7,20.5,299,20.5z"/>
			<path fill-rule="evenodd" clip-rule="evenodd" fill="#FFFFFF" d="M299.2,18.6c0.1,0,0.2,0.2,0.1,0.4c-0.1,0.2-0.2,0.3-0.3,0.2
				c-0.1-0.1-0.2-0.2-0.1-0.4C298.9,18.6,299,18.5,299.2,18.6L299.2,18.6z"/>
			<path fill-rule="evenodd" clip-rule="evenodd" fill="#FFFFFF" d="M298.3,19.4c0.5,0.3,1,0.3,1.5,0.1c-0.1,0.3-0.5,0.6-0.9,0.6
				C298.5,20,298.3,19.7,298.3,19.4L298.3,19.4z"/>
			<path fill="#FFFFFF" d="M300.4,60.7c0,0,0-0.1,0-0.2C300.3,60.6,300.3,60.7,300.4,60.7c-0.1,0.1-0.1,0.1-0.1,0.1l-0.2,0.6h0.6
				L300.4,60.7C300.4,60.8,300.4,60.8,300.4,60.7z"/>
			<polygon fill="#FFFFFF" points="299,26.1 298.7,27.2 299.3,27.2 			"/>
			<path fill="#FFFFFF" d="M292.5,60.6c-0.2,0-0.3,0.1-0.4,0.2c-0.1,0.1-0.2,0.3-0.2,0.5c0,0.2,0.1,0.4,0.2,0.5
				c0.1,0.1,0.3,0.2,0.4,0.2c0.2,0,0.3-0.1,0.5-0.2c0.1-0.1,0.2-0.3,0.2-0.5c0-0.2-0.1-0.3-0.2-0.5
				C292.8,60.6,292.6,60.6,292.5,60.6z"/>
			<polygon fill="#FFFFFF" points="305,26.1 304.7,27.2 305.2,27.2 			"/>
			<path fill="#FFFFFF" d="M304.3,60.7c0,0,0-0.1,0-0.2C304.3,60.6,304.3,60.7,304.3,60.7c-0.1,0.1-0.1,0.1-0.1,0.1l-0.2,0.6h0.6
				L304.3,60.7C304.3,60.8,304.3,60.8,304.3,60.7z"/>
			<g>
				<path fill="#FFFFFF" d="M308.1,51.4c-0.7,0-1.2,0.6-1.2,1.2c0,0.7,0.5,1.2,1.2,1.2c0.7,0,1.2-0.6,1.2-1.2
					C309.4,51.9,308.8,51.4,308.1,51.4z M308.1,53.6c-0.6,0-1-0.4-1-1c0-0.5,0.4-1,1-1c0.5,0,1,0.4,1,1
					C309.1,53.2,308.7,53.6,308.1,53.6z"/>
				<path fill="#FFFFFF" d="M308.1,52.1c-0.3,0-0.5,0.2-0.5,0.5c0,0.3,0.2,0.5,0.5,0.5c0.3,0,0.5-0.2,0.5-0.5
					C308.6,52.3,308.4,52.1,308.1,52.1z"/>
			</g>
			<path fill-rule="evenodd" clip-rule="evenodd" fill="#FFFFFF" d="M299.3,38.3c0.2-0.1,0.3-0.2,0.5-0.2c0.2,0,0.3-0.1,0.5,0
				c0.2,0.1,0.5,0.4,0.4,0.6c-0.1,0.2-0.3,0.2-0.6,0c-0.2-0.1-0.5-0.2-0.6,0c-0.1,0.2-0.3,0.2-0.4,0.1
				C299,38.6,299.1,38.4,299.3,38.3L299.3,38.3z"/>
			<path fill-rule="evenodd" clip-rule="evenodd" fill="#FFFFFF" d="M301,38.6c0.1,0,0.2,0.1,0.2,0.2c0,0.1-0.1,0.1-0.2,0.1
				c-0.1,0-0.2-0.1-0.2-0.2C300.8,38.6,300.9,38.6,301,38.6L301,38.6z"/>
			<path fill-rule="evenodd" clip-rule="evenodd" fill="#FFFFFF" d="M300.8,38.4c0.1,0,0.2,0,0.2,0.1c0,0-0.1,0.1-0.1,0.1
				c-0.1,0-0.2,0-0.2-0.1C300.7,38.4,300.7,38.3,300.8,38.4L300.8,38.4z"/>
			<path fill-rule="evenodd" clip-rule="evenodd" fill="#FFFFFF" d="M300.7,38.2c0.1,0,0.1,0,0.1,0.1c0,0-0.1,0.1-0.1,0.1
				c-0.1,0-0.1,0-0.1-0.1C300.5,38.2,300.6,38.2,300.7,38.2L300.7,38.2z"/>
			<path fill-rule="evenodd" clip-rule="evenodd" fill="#FFFFFF" d="M300.5,38.1c0.1,0,0.1,0,0.1,0.1c0,0,0,0.1-0.1,0.1
				C300.5,38.2,300.4,38.1,300.5,38.1C300.4,38.1,300.5,38,300.5,38.1L300.5,38.1z"/>
			<path fill-rule="evenodd" clip-rule="evenodd" fill="#FFFFFF" d="M300.3,38c0.1,0,0.1,0,0.1,0c0,0,0,0.1-0.1,0.1
				C300.3,38.1,300.2,38.1,300.3,38C300.2,38,300.3,38,300.3,38L300.3,38z"/>
			<path fill-rule="evenodd" clip-rule="evenodd" fill="#FFFFFF" d="M304.2,37.9c0.1,0,0.2-0.1,0.4-0.1c0.1-0.1,0.3-0.1,0.3-0.2
				c0-0.2-0.1-0.5-0.2-0.6c-0.2-0.1-0.2,0.1-0.2,0.3c0,0.2-0.1,0.2-0.3,0.2c-0.2,0-0.3,0.2-0.2,0.3C303.8,37.9,304,38,304.2,37.9
				L304.2,37.9z"/>
			<path fill-rule="evenodd" clip-rule="evenodd" fill="#FFFFFF" d="M304.6,36.8c0.1-0.1,0.1-0.2,0-0.2c0,0-0.1,0-0.2,0
				c-0.1,0.1-0.1,0.2,0,0.2C304.5,36.9,304.6,36.9,304.6,36.8L304.6,36.8z"/>
			<path fill-rule="evenodd" clip-rule="evenodd" fill="#FFFFFF" d="M304.8,37c0,0,0-0.1,0-0.1c0,0-0.1,0-0.1,0c0,0,0,0.1,0,0.1
				C304.7,37,304.8,37,304.8,37L304.8,37z"/>
			<path fill-rule="evenodd" clip-rule="evenodd" fill="#FFFFFF" d="M304.9,37.1c0,0,0.1-0.1,0.1-0.1c0,0-0.1,0-0.1,0
				c0,0-0.1,0.1-0.1,0.1C304.8,37.2,304.9,37.2,304.9,37.1L304.9,37.1z"/>
			<path fill-rule="evenodd" clip-rule="evenodd" fill="#FFFFFF" d="M305,37.4C305,37.4,305,37.4,305,37.4c0.1-0.1,0.1-0.1,0-0.1
				C304.9,37.3,304.9,37.3,305,37.4C304.9,37.4,304.9,37.4,305,37.4L305,37.4z"/>
			<path fill-rule="evenodd" clip-rule="evenodd" fill="#FFFFFF" d="M305,37.6C305,37.6,305,37.6,305,37.6c0.1-0.1,0.1-0.1,0-0.1
				C304.9,37.5,304.9,37.5,305,37.6C304.9,37.6,304.9,37.6,305,37.6L305,37.6z"/>
			<path fill-rule="evenodd" clip-rule="evenodd" fill="#FFFFFF" d="M303.9,34.8c0-0.2,0.3-0.6,0.4-0.6c0.2,0,0.6,0.1,0.7,0.2
				c0.1,0.1,0.1,0.2-0.2,0.2c-0.3,0.1-0.4,0.2-0.4,0.4c0,0.2-0.2,0.2-0.3,0.2C303.9,35.1,303.9,34.9,303.9,34.8L303.9,34.8z"/>
			<path fill-rule="evenodd" clip-rule="evenodd" fill="#FFFFFF" d="M305.2,34.3c0.1,0,0.1-0.1,0.2,0c0,0,0,0.1-0.1,0.2
				c-0.1,0-0.2,0.1-0.2,0C305.2,34.5,305.2,34.4,305.2,34.3L305.2,34.3z"/>
			<path fill-rule="evenodd" clip-rule="evenodd" fill="#FFFFFF" d="M305.1,34.1c0,0,0.1,0,0.1,0c0,0,0,0.1,0,0.1c0,0-0.1,0-0.1,0
				C305,34.2,305,34.2,305.1,34.1L305.1,34.1z"/>
			<path fill-rule="evenodd" clip-rule="evenodd" fill="#FFFFFF" d="M304.8,34c0,0,0.1-0.1,0.1,0c0,0,0,0.1,0,0.1c0,0-0.1,0.1-0.1,0
				C304.8,34.1,304.8,34.1,304.8,34L304.8,34z"/>
			<path fill-rule="evenodd" clip-rule="evenodd" fill="#FFFFFF" d="M304.5,34C304.5,33.9,304.6,33.9,304.5,34
				c0.1-0.1,0.1-0.1,0.1,0C304.7,34,304.6,34,304.5,34C304.6,34,304.5,34,304.5,34L304.5,34z"/>
			<path fill-rule="evenodd" clip-rule="evenodd" fill="#FFFFFF" d="M304.3,34C304.3,33.9,304.3,33.9,304.3,34
				C304.3,33.9,304.4,33.9,304.3,34C304.4,34,304.4,34,304.3,34C304.3,34.1,304.3,34,304.3,34L304.3,34z"/>
			<path fill-rule="evenodd" clip-rule="evenodd" fill="#FFFFFF" d="M305.6,32.3c0.1-0.1,0.3-0.3,0.4-0.3c0.1,0,0.4,0.2,0.4,0.3
				c0,0.1,0,0.1-0.2,0.1c-0.2,0-0.3,0-0.3,0.1c0,0.1-0.2,0.1-0.2,0C305.5,32.5,305.5,32.4,305.6,32.3L305.6,32.3z"/>
			<path fill-rule="evenodd" clip-rule="evenodd" fill="#FFFFFF" d="M306.5,32.4c0.1,0,0.1,0,0.1,0c0,0,0,0.1-0.1,0.1
				C306.5,32.5,306.4,32.5,306.5,32.4C306.4,32.5,306.4,32.4,306.5,32.4L306.5,32.4z"/>
			<path fill-rule="evenodd" clip-rule="evenodd" fill="#FFFFFF" d="M306.4,32.2C306.5,32.2,306.5,32.2,306.4,32.2
				C306.5,32.3,306.5,32.3,306.4,32.2C306.4,32.3,306.4,32.3,306.4,32.2C306.4,32.3,306.4,32.2,306.4,32.2L306.4,32.2z"/>
			<polygon fill-rule="evenodd" clip-rule="evenodd" fill="#FFFFFF" points="296.3,37.9 296.9,37.9 296.9,38.5 297.5,38.5 
				297.5,38.9 296.9,38.9 296.9,41.9 296.3,41.9 296.3,38.9 295.6,38.9 295.6,38.5 296.3,38.5 			"/>
			<path fill="#FFFFFF" d="M290,40.7c-0.2,0-0.4,0.2-0.4,0.4c0,0.2,0.2,0.4,0.4,0.4c0.2,0,0.4-0.2,0.4-0.4
				C290.5,40.9,290.3,40.7,290,40.7z"/>
			<path fill="#FFFFFF" d="M290,40.1c-0.6,0-1,0.5-1,1c0,0.6,0.5,1.1,1,1.1c0.6,0,1-0.5,1-1.1C291.1,40.5,290.6,40.1,290,40.1z
				 M290,42c-0.5,0-0.9-0.4-0.9-0.8c0-0.5,0.4-0.8,0.9-0.8c0.5,0,0.8,0.4,0.8,0.8C290.9,41.6,290.5,42,290,42z"/>
			<path fill="#FFFFFF" d="M294.6,35.2c0.2,0,0.4-0.2,0.4-0.4c0-0.2-0.2-0.4-0.4-0.4c-0.2,0-0.4,0.2-0.4,0.4
				C294.2,35,294.4,35.2,294.6,35.2z M294.6,34.5c0.2,0,0.3,0.1,0.3,0.3c0,0.2-0.1,0.3-0.3,0.3c-0.2,0-0.3-0.1-0.3-0.3
				C294.3,34.6,294.4,34.5,294.6,34.5z"/>
			<path fill="#FFFFFF" d="M291.8,34.3c-0.3,0.2-0.6,0.7-0.5,1.2c0.1,0.6,0.8,0.6,0.8,0C292.1,35.1,291.7,34.8,291.8,34.3z"/>
			<path fill="#FFFFFF" d="M293.9,36.5v-1.2c-0.1-0.1-0.2-0.3-0.2-0.5c0-0.2,0.1-0.4,0.2-0.5v-1.5c0-0.3,0-0.8,0.2-0.8h0.5
				c1,0,1-1.8-0.1-1.8h-1.2c-0.3,0-0.6,0-0.7,0.2v-0.5h-1.9v2.4c-0.9-0.3-1.4,0.4-1.4,0.9l0,5.3c0,0.7,0.2,1,0.6,1.3l2.4,2.1
				c-0.9-0.3-1.4,0.2-1.4,1v1.2h-1c-1.3,0-1.1,1.4-0.5,1.6v2.3c0,0.3,0.5,0.8,0.8,0.8l1.6,0l0.2-0.2h-1.8c-0.3,0-0.5-0.3-0.5-0.6
				l0-2.3c-0.3-0.1-0.5-0.3-0.5-0.6c0-0.4,0.3-0.7,0.7-0.7l0.6,0c0.3,0,0.5,0.3,0.5,0.6l0,2.3h1c0.3,0,0.6,0.2,0.7,0.5l0.4-0.5
				l0.1-0.9l0.7-0.1l1,0.2l0.7-2.2v-7.2C295.5,35.8,294.1,36,293.9,36.5z M293.9,37.1c0-0.4,0.3-0.7,0.7-0.7c0.4,0,0.7,0.3,0.7,0.7
				v2.8c0,0.2-0.3,0.2-0.3,0v-2.8c0-0.7-0.8-0.7-0.8,0v2.2c0,0.2-0.3,0.2-0.3,0V37.1z M294.8,37.1v2.4c0,0.4-0.5,0.4-0.5,0v-2.4
				C294.3,36.6,294.8,36.6,294.8,37.1z M292.9,30.5l1.5,0c0.4,0,0.7,0.3,0.7,0.7c0,0.3-0.2,0.5-0.4,0.6c0,0-0.9,0-0.9,0v6.9
				c0,0.2-0.3,0.2-0.3,0v-7.2h1.1c0.5,0,0.4-0.8,0-0.8H293c-0.1,0-0.3,0.1-0.3,0.3V38c0,0.2-0.3,0.2-0.3,0l0-6.8
				C292.5,30.8,292.7,30.5,292.9,30.5z M293.3,31.4v6.8c0,0.3-0.4,0.3-0.4,0v-7.1c0-0.1,0.1-0.2,0.2-0.2h1.5c0.3,0,0.3,0.5,0,0.5
				H293.3z M292.4,35.4c0,1-1.1,1.2-1.4,0.2c-0.2-0.8,0.3-1.6,1.1-1.9C291.7,34.3,292.4,34.7,292.4,35.4z M291.9,30.2
				c0-0.1,0.1-0.2,0.2-0.2h0c0.1,0,0.2,0.1,0.2,0.2v2.9c0,0.1-0.1,0.2-0.2,0.2h0c-0.1,0-0.2-0.1-0.2-0.2V30.2z M291.4,30.2
				c0-0.1,0.1-0.2,0.2-0.2c0.1,0,0.2,0.1,0.2,0.2v2.9c0,0.1-0.1,0.2-0.2,0.2c-0.1,0-0.2-0.1-0.2-0.2V30.2z M290.9,30.3
				c0-0.1,0.1-0.2,0.2-0.2c0.1,0,0.2,0.1,0.2,0.2v3.3c0,0.1-0.1,0.2-0.2,0.2c-0.1,0-0.2-0.1-0.2-0.2V30.3z M291.9,46.9
				c0,0.4-0.5,0.4-0.5,0v-4c0-0.5,0.5-0.5,0.5,0V46.9z M292.3,47c0,0.2-0.3,0.2-0.3,0v-4.1c0-0.6-0.8-0.7-0.8,0V47
				c0,0.2-0.3,0.2-0.3,0v-4.1c0-0.4,0.3-0.7,0.7-0.7c0.4,0,0.7,0.3,0.7,0.7V47z M293.3,45.6c0,0.3-0.4,0.3-0.4,0v-3.7
				c0-0.1,0-0.2-0.1-0.2l-2.7-2.5c-0.1-0.1-0.2-0.4-0.2-0.5v-5.5c0-0.1,0.1-0.2,0.2-0.2c0.1,0,0.2,0.1,0.2,0.2v5.4
				c0,0.1,0,0.2,0.1,0.3l2.8,2.6c0.1,0.1,0.1,0.2,0.1,0.2V45.6z M293.8,41.8l0,3.8c0,0.2-0.2,0.2-0.2,0l0-4c0-0.1,0-0.1-0.1-0.2
				l-2.8-2.7c0,0-0.1-0.1-0.1-0.2l0-5.3c0-0.6-0.8-0.6-0.8,0v5.4c0,0.2,0.1,0.5,0.2,0.7l2.6,2.4c0.1,0,0.1,0.1,0.1,0.2l0,4.3
				c0,0.2-0.2,0.2-0.2,0l0-4.2c0-0.1,0-0.1-0.1-0.2l-2.6-2.4c-0.2-0.2-0.3-0.4-0.3-0.7v-5.4c0-1.1,1.3-1.1,1.3,0v5.3l2.8,2.6
				C293.8,41.4,293.8,41.6,293.8,41.8z M294.8,45.4c0,0.3-0.5,0.3-0.5,0v-4.1c0-0.1,0-0.2-0.1-0.2l-2.7-2.4
				c-0.1-0.1-0.2-0.2-0.2-0.3v-1c0-0.2,0.1-0.3,0.2-0.3c0.1,0,0.2,0.1,0.2,0.3v0.7c0,0.1,0,0.2,0.1,0.3l2.7,2.4
				c0.1,0.1,0.1,0.2,0.1,0.3V45.4z M295.2,41.1v3.6c0,0.2-0.2,0.2-0.2,0V41c0-0.1,0-0.2-0.1-0.3l-2.8-2.5c-0.1,0-0.1-0.1-0.1-0.2
				v-0.8c0-0.2-0.2-0.4-0.4-0.4c-0.2,0-0.4,0.2-0.4,0.4v1.1c0,0.1,0.1,0.3,0.1,0.4l2.7,2.4c0.1,0.1,0.1,0.2,0.1,0.2v4.3
				c0,0.2-0.2,0.2-0.2,0v-4.2c0-0.1,0-0.2-0.1-0.2l-2.6-2.3c-0.1-0.1-0.3-0.3-0.3-0.6v-1.1c0-0.9,1.3-0.9,1.3,0v0.8l2.8,2.5
				C295.3,40.8,295.2,40.9,295.2,41.1z"/>
			<path fill="#FFFFFF" d="M291.9,47.6h-1.2c-0.1,0-0.2,0-0.2-0.1V45c0-0.1-0.1-0.3-0.3-0.3h-0.6c-0.4,0-0.5,0.8,0,0.8h0.2V48
				c0,0.1,0.1,0.3,0.3,0.3h1.8C292.4,48.3,292.4,47.6,291.9,47.6z M291.9,48.2h-1.8c-0.1,0-0.1-0.2-0.1-0.3v-2.6h-0.3
				c-0.3,0-0.3-0.5,0-0.5h0.6c0.1,0,0.2,0.1,0.2,0.2v2.4c0,0.2,0,0.3,0.2,0.3h1.3C292.2,47.8,292.2,48.2,291.9,48.2z"/>
			<path fill="#FFFFFF" d="M291.9,48.6c0.4,0,0.7-0.3,0.7-0.7c0-0.1,0-0.1,0-0.1L291.9,48.6L291.9,48.6z"/>
			<path fill="#FFFFFF" d="M294.6,34.4c-0.2,0-0.4,0.2-0.4,0.4c0,0.2,0.2,0.4,0.4,0.4c0.2,0,0.4-0.2,0.4-0.4
				C295,34.6,294.8,34.4,294.6,34.4z"/>
			<path fill="#FFFFFF" d="M294.6,33.7c-0.6,0-1,0.5-1,1c0,0.6,0.5,1,1,1c0.6,0,1-0.5,1-1C295.7,34.2,295.2,33.7,294.6,33.7z
				 M294.6,35.6c-0.3,0-0.5-0.1-0.7-0.3c-0.1-0.1-0.2-0.3-0.2-0.5c0-0.2,0.1-0.4,0.2-0.5c0.2-0.2,0.4-0.3,0.7-0.3
				c0.5,0,0.8,0.4,0.8,0.8C295.5,35.2,295.1,35.6,294.6,35.6z"/>
			<path fill="#FFFFFF" d="M297,30.5c-1.4,0.1-1.4,1.4,0,1.7c1.1,0.2,2-0.7,2.4-1.6C298.4,31.1,297.8,30.4,297,30.5z M297,32
				c-1.1-0.2-1.1-1.4,0.1-1.4c0.7,0,1.2,0.6,2,0.2C298.8,31.5,298,32.1,297,32z"/>
			<path fill-rule="evenodd" clip-rule="evenodd" fill="#FFFFFF" d="M298.3,31.1c-0.5,0.2-1-0.2-1.4-0.2c-0.7,0-0.7,0.7,0.1,0.8
				C297.6,31.8,298.1,31.5,298.3,31.1L298.3,31.1z"/>
			<g>
				<path fill-rule="evenodd" clip-rule="evenodd" fill="#FFFFFF" d="M297,48.9l0,0.6c-0.8,0-1.4,0.3-2.1,0.8
					C295.3,49.5,296.1,49,297,48.9L297,48.9z"/>
				<path fill="#FFFFFF" d="M306.7,51.3l2.8,0l0-6l-0.8,0c-0.1-0.9-1.5-0.8-1.6,0h-0.5l-2.4-4.3l-4.3-1.1c-1.2-0.1-2.5,0.7-3.6,2
					c-1.2,1.5-1.8,2.9-1.6,4.7c-0.5-1.2-2.3-0.7-1.9,1.1c-2.3,0.6-2.4,3.3-1.1,3.3c-0.9,2.4,0.2,2.8,1.8,2c0.8,1,1.3,0.9,2.2,0.6
					c2.3,1.3,5.1,0.8,7.1-0.7c1.3,0,1.6,0.8,3,0.7c1.3-0.1,1.3-1.1,0.7-1.8C306.1,51.4,306.1,51.3,306.7,51.3z M309.1,50h-3.2
					c-0.1,0-0.2-0.1-0.2-0.2c0-0.1,0.1-0.2,0.2-0.2h3.2c0.1,0,0.2,0.1,0.2,0.2C309.3,49.9,309.2,50,309.1,50z M309.3,50.3
					c0,0.1-0.1,0.2-0.2,0.2h-3.1c-0.1,0-0.2-0.1-0.2-0.2c0-0.1,0.1-0.2,0.2-0.2h3.1C309.2,50.2,309.3,50.2,309.3,50.3z M309.1,49.5
					h-3.9c-0.1,0-0.2-0.1-0.2-0.2c0-0.1,0.1-0.2,0.2-0.2h3.9c0.1,0,0.2,0.1,0.2,0.2C309.3,49.4,309.2,49.5,309.1,49.5z M308.7,45.6
					h0.4c0.1,0,0.2,0.1,0.2,0.2c0,0.1-0.1,0.2-0.2,0.2h-0.4c-0.1,0-0.2-0.1-0.2-0.2C308.6,45.6,308.6,45.6,308.7,45.6z M308.7,46.1
					h0.4c0.1,0,0.2,0.1,0.2,0.2c0,0.1-0.1,0.2-0.2,0.2h-0.4c-0.1,0-0.2-0.1-0.2-0.2C308.6,46.1,308.6,46.1,308.7,46.1z M308.7,46.6
					h0.4c0.1,0,0.2,0.1,0.2,0.2c0,0.1-0.1,0.2-0.2,0.2h-0.4c-0.1,0-0.2-0.1-0.2-0.2C308.6,46.7,308.6,46.6,308.7,46.6z M307.2,45.5
					c0-0.9,1.3-0.9,1.3,0v1.3c0,0.1,0.1,0.2,0.2,0.2h0.5c0.2,0,0.2,0.3,0,0.3h-0.7c-0.1,0-0.3-0.2-0.3-0.3v-1.4c0-0.6-0.7-0.6-0.7,0
					v2c0,0.1,0.1,0.4,0.3,0.4h1.3c0.2,0,0.2,0.4,0,0.4h-1.5c-0.2,0-0.4-0.3-0.4-0.5V45.5z M309.1,48.6c0.1,0,0.2,0.1,0.2,0.2
					c0,0.1-0.1,0.2-0.2,0.2h-4.6c-0.1,0-0.2-0.1-0.2-0.2c0-0.1,0.1-0.2,0.2-0.2H309.1z M303.2,46.9h-1.1c-0.1,0-0.2-0.1-0.2-0.2
					c0-0.1,0.1-0.2,0.2-0.2h0.8c0.2,0,0.2-0.2,0-0.2h-1c-0.1,0-0.2-0.1-0.2-0.2c0-0.1,0.1-0.2,0.2-0.2h1l1,0.9h1.7l0.3-0.4h1
					c0.1,0,0.2,0.1,0.2,0.2c0,0.1-0.1,0.2-0.2,0.2H306c-0.1,0-0.1,0.2,0,0.2h0.9c0.1,0,0.2,0.1,0.2,0.2c0,0.1-0.1,0.2-0.2,0.2h-4.6
					c-0.1,0-0.2-0.1-0.2-0.2c0-0.1,0.1-0.2,0.2-0.2h0.9C303.3,47.1,303.3,46.9,303.2,46.9z M300.2,42.7c0.3,0.3,0.6,0.4,1,0.3
					c0.1,0.2,0.4,0.3,0.7,0.2c0.3-0.1,0.2,0,0.1,0.3c-0.2,0.7,0.1,1.1,0.6,1.1c-0.1,0.2,0,0.4,0.1,0.5h-1.4c-0.1-1-0.7-1.2-1.3-1.2
					C300.2,43.6,300.3,43.2,300.2,42.7z M305.7,46.5l-0.1,0.3h-1.1l0.1-0.3H305.7z M304.7,46.3l0.1-0.3h1.2l-0.2,0.3H304.7z
					 M304.2,47.6h2.3c0.1,0,0.2,0.1,0.2,0.2c0,0.1-0.1,0.2-0.2,0.2h-2.3c-0.1,0-0.2-0.1-0.2-0.2C304,47.7,304.1,47.6,304.2,47.6z
					 M306.5,45.6h0.4c0.1,0,0.2,0.1,0.2,0.2c0,0.1-0.1,0.2-0.2,0.2h-0.4c-0.1,0-0.2-0.1-0.2-0.2C306.3,45.6,306.4,45.6,306.5,45.6z
					 M306.5,46.1h0.4c0.1,0,0.2,0.1,0.2,0.2c0,0.1-0.1,0.2-0.2,0.2h-0.4c-0.1,0-0.2-0.1-0.2-0.2C306.3,46.1,306.4,46.1,306.5,46.1z
					 M306.2,45.4l-0.2,0.4h-1.2l0.1-0.4L306.2,45.4L306.2,45.4z M306,45h-1.1l-0.2-0.4h1L306,45z M305.6,44.3h-1l-0.2-0.4h0.9
					L305.6,44.3z M305.2,43.6h-0.9l-0.2-0.4h0.9L305.2,43.6z M304.9,43.1L304.9,43.1H304l-0.2-0.4c0,0,0.9,0,0.9,0L304.9,43.1z
					 M304.6,42.5h-1l-0.3-0.5h1L304.6,42.5z M304,41.4l0.3,0.5c0,0,0,0,0,0l-1.1,0l-0.4-0.5H304z M292,50.6c-0.3,0.1-0.7,0-0.8-0.2
					c-0.2-0.3,0-0.6,0.2-0.7c0.1,0,0.4,0.1,0.3,0.3c-0.2,0.2,0.1,0.3,0.3,0.3C292.2,50.3,292.1,50.6,292,50.6z M298.5,53.5
					c-1.3,0-2.4-0.4-2.4-0.9c0-0.5,1.1-0.9,2.4-0.9c1.3,0,2.4,0.4,2.4,0.9C300.9,53.1,299.8,53.5,298.5,53.5z M301.1,51.8
					c-1.2-1.3-3.2-1-4.7-0.2c-0.5,0.4-0.9,0-0.5-0.3c1.4-1.1,4.4-1.1,5.5,0.1c0,0,0.1,0,0.1,0.1C301.9,52.1,301.6,52.3,301.1,51.8z
					 M303.5,50.7c1.8,0.5,0.6,3-0.7,1.3c-0.1,0.8-0.3,1-1,0.9c0.4-1.1,0.3-2.1-0.6-2.4c-1.9-0.8-4.2-0.7-5.9,0.6
					c-0.8,0.7-0.4,1.4,0.2,2c-1,0.3-1.5-0.3-1.4-1.3c-1.1,1.2-2.7-0.8-0.7-1.4c-2.4-0.3-1.4-2.3,0.3-1.5c-1.7-2.3,0.5-3,0.7-1.2
					c1.2-1,1.8-5.6,3.1-5.3c-0.1-1.6,1.2-2.2,3.4-1.6c0.7,0.2,1.2,0.7,1.8,1.3c0.8,0.8,1.3,1.8,1.9,3.1l-0.5,1.5l-1.1-0.9l0.1-0.6
					c-0.2-0.2-0.3-0.5-0.2-0.8c-0.7,0.2-0.9-0.3-0.3-1.4c-0.2-0.7-1.1,0.5-1.1-0.5c-0.8,0-1.1-0.1-1.4-0.5c-0.1,0.2-0.2,0-0.3,0.2
					c-0.2,0.5,0.1,1.9-1,2.1c0.8-0.1,1.9,0.7,2.1,1.2l0.9,2.6c0.1,0.3,0.2,0.7,0.5,0.9c0.7-1.7,1.9-0.6,1,0.7
					C305.2,48.8,305.2,50.9,303.5,50.7z M306.6,52.9c-0.3,0.4-0.9,0.4-1.5,0.1c-0.3-0.2-0.1-0.4,0-0.4c1.3,0.5,1.5-0.2,0.5-0.8
					c-0.5-0.3-0.2-1.2,0.4-1.2l3,0c0.1,0,0.2,0.1,0.2,0.2c0,0.1-0.1,0.2-0.2,0.2h-2.9c-0.5,0-0.6,0.5-0.2,0.7
					C306.5,52.1,306.9,52.6,306.6,52.9z"/>
			</g>
			<g>
				<path fill="#FFFFFF" d="M289.3,49.3c-0.7,0-1.2,0.5-1.2,1.2c0,0.7,0.5,1.2,1.2,1.2c0.7,0,1.2-0.6,1.2-1.2
					C290.5,49.8,289.9,49.3,289.3,49.3z M289.3,51.5c-0.6,0-1-0.4-1-1c0-0.5,0.4-1,1-1c0.5,0,1,0.4,1,1
					C290.3,51,289.8,51.5,289.3,51.5z"/>
				<path fill="#FFFFFF" d="M289.3,50c-0.3,0-0.5,0.2-0.5,0.5c0,0.3,0.2,0.5,0.5,0.5c0.3,0,0.5-0.2,0.5-0.5
					C289.8,50.2,289.5,50,289.3,50z"/>
			</g>
			<g>
				<path fill="#FFFFFF" d="M289.3,49.3c-0.7,0-1.2,0.5-1.2,1.2c0,0.7,0.5,1.2,1.2,1.2c0.7,0,1.2-0.6,1.2-1.2
					C290.5,49.8,289.9,49.3,289.3,49.3z M289.3,51.5c-0.6,0-1-0.4-1-1c0-0.5,0.4-1,1-1c0.5,0,1,0.4,1,1
					C290.3,51,289.8,51.5,289.3,51.5z"/>
				<path fill="#FFFFFF" d="M289.3,50c-0.3,0-0.5,0.2-0.5,0.5c0,0.3,0.2,0.5,0.5,0.5c0.3,0,0.5-0.2,0.5-0.5
					C289.8,50.2,289.5,50,289.3,50z"/>
			</g>
			<g>
				<path fill="#FFFFFF" d="M289.3,49.3c-0.7,0-1.2,0.5-1.2,1.2c0,0.7,0.5,1.2,1.2,1.2c0.7,0,1.2-0.6,1.2-1.2
					C290.5,49.8,289.9,49.3,289.3,49.3z M289.3,51.5c-0.6,0-1-0.4-1-1c0-0.5,0.4-1,1-1c0.5,0,1,0.4,1,1
					C290.3,51,289.8,51.5,289.3,51.5z"/>
				<path fill="#FFFFFF" d="M289.3,50c-0.3,0-0.5,0.2-0.5,0.5c0,0.3,0.2,0.5,0.5,0.5c0.3,0,0.5-0.2,0.5-0.5
					C289.8,50.2,289.5,50,289.3,50z"/>
			</g>
			<g>
				<path fill="#FFFFFF" d="M289.2,29.9c-0.7,0-1.2,0.6-1.2,1.2c0,0.7,0.6,1.2,1.2,1.2c0.7,0,1.2-0.6,1.2-1.2
					C290.5,30.4,289.9,29.9,289.2,29.9z M289.2,32.1c-0.6,0-1-0.4-1-1c0-0.6,0.4-1,1-1c0.6,0,1,0.4,1,1
					C290.2,31.7,289.8,32.1,289.2,32.1z"/>
				<path fill="#FFFFFF" d="M289.2,30.6c-0.3,0-0.5,0.2-0.5,0.5c0,0.3,0.2,0.5,0.5,0.5c0.3,0,0.5-0.2,0.5-0.5
					C289.7,30.8,289.5,30.6,289.2,30.6z"/>
			</g>
			<polygon fill="#FFFFFF" points="298.5,2.5 301.3,9.3 302.1,8.5 298.6,0 295.2,8.3 295.8,9 			"/>
			<path fill="#FFFFFF" d="M291.9,13.4l-0.7-8.6l3.6,4.3l0.3-0.8l-4.8-5.6l0.8,10.4L291.9,13.4C291.9,13.5,291.9,13.5,291.9,13.4z"
				/>
			<path fill="#FFFFFF" d="M289.3,15.8l-1.2-2.9l3,1.1c0,0,0,0,0.1,0l-0.1-0.8l-4.4-1.6l1.8,4.2L289.3,15.8L289.3,15.8z"/>
			<path fill="#FFFFFF" d="M280.8,16.3l8,0.2c0,0,0,0,0,0l-0.3-0.8l-9.9-0.4l6.1,5l0.8-0.3L280.8,16.3z"/>
			<path fill="#FFFFFF" d="M308.5,16.5l7.7-0.2l-4.3,3.6l0.9,0.4l5.7-5l-10.2,0.5l-0.1,0.2C308.3,16.2,308.4,16.3,308.5,16.5z"/>
			<path fill="#FFFFFF" d="M308.8,12.9l-1.1,2.6c0.1,0.1,0.2,0.3,0.3,0.4l0.2,0l1.9-4.2l-3.9,1.5l-0.1,0.8L308.8,12.9z"/>
			<polygon fill="#FFFFFF" points="306.2,4.9 305.4,13.4 305.4,13.4 306.2,13.1 307.1,2.7 302.1,8.5 302.4,9.3 			"/>
			<path fill="#FFFFFF" d="M297.5,11.4l0.4-1.1l0.6-1.6l0.6,1.6l0.4,1.1h0c0.2,0,0.3,0,0.5,0c0,0,0.1,0,0.1,0l-0.6-1.4l-1-2.5
				l-1,2.5l-0.6,1.5c0.1,0,0.1,0,0.2,0C297.2,11.4,297.3,11.4,297.5,11.4L297.5,11.4z"/>
			<path fill="#FFFFFF" d="M321.1,24.2l-8.4-3.8L312,21l5.8,2.5h-3.6l-3.6,0c0,0,0,0.1,0,0.1h-0.6c0,0,0-0.1,0-0.1h-22.9
				c0,0,0,0.1,0,0.1h-0.6c0,0,0-0.1,0-0.1l-3.8,0l0,0h-3.6l6-2.6l-0.6-0.5l-8.7,3.8H321.1z"/>
			<path fill="#FFFFFF" d="M305.9,31c0,0.1-0.1,0.2-0.2,0.2c-0.1,0-0.2-0.1-0.2-0.2c0-0.1,0.1-0.2,0.2-0.2
				C305.9,30.8,305.9,30.9,305.9,31z"/>
			<path fill="#FFFFFF" d="M305.6,33l1.9-0.2c1.1-0.1,2.1-1,1.5-1.6c-0.4-0.4-0.3-0.3-0.1-0.5l0.4-0.3l0-0.4l-1.1,0l-1,0.7
				c-0.2,0.2-0.2,0.6,0.2,0.6c0.9,0,0.6,0.6,0.3,0.6h-1.4l0-1.2c0-0.3-0.2-0.5-0.5-0.5V30l-0.3,0v0.2c-0.3,0-0.6,0.3-0.6,0.5V31
				c-0.6-0.2-1.9-0.1-2,0.1V32l1.9,0c-0.6,0.1-1.2,0.1-1.5,0.3c-0.2,0.1-0.4,0.2-0.5,0c-0.3-0.5-0.8-0.5-1.2,0
				c-0.1,0.1-0.2,0.2-0.5-0.1c-0.5-0.6-0.8-0.4-1.1-0.2l-1.6,0.9c-0.2,0.1-0.2,0.4,0.1,0.4l1.4,0c0.2,0.2,0.6,0.2,0.9,0.2
				c0.1,0.2,0.8,0.3,1.8,0.3l0.7,0.3c0.3,0.1,0.1,0.3-0.1,0.4c-0.5,0.1-1,0.2-1.5,0.3c-0.6,0.1-0.8,0.8-0.2,1.1l1.8,0.9
				c0.4,0.2,0.3,0.4,0,0.5c-0.5,0.1-0.9,0.1-1.3,0.2c-0.5,0.1-0.9,0-1.4,0c-0.5,0-0.9,0-1.4,0.1c-0.4,0.1-0.8,0.3-1.1,0.5
				c-0.5,0.3,0,0.8-0.6,1.3c-0.4,0.1-0.5,0.2-0.5,0.4c-0.1,0.3,0,0.5,0,0.8c0.1,0.2,0.2,0.2,0.4,0.2l0.4-0.2
				c0.2-0.7,0.8-1.1,1.4-1.1c0.8,0,1.6,0.2,2.3-0.2c0.5-0.2,0.9-0.4,1.5-0.3c0.7,0.1,1.4-0.2,1.6-0.5c0.1-0.2,0.1-0.3,0.6-0.4
				c0.9,0,1.5-0.5,1.3-1.3l2.3,0c0.2,0,0.3-0.3,0.1-0.5l-1-1.1c-0.2-0.2-0.6-0.2-0.8,0.1c-0.3,0.4-0.4,0.5-0.8,0.1
				c-0.3-0.4-0.6-0.3-1,0l-0.4,0.3c-0.5-0.1-0.5-0.3,0-0.5l1.3-0.6c0.6-0.3,0.3-1.3-0.7-1.3C304.7,33.2,304.8,33.1,305.6,33z
				 M305.3,30.7c0-0.2,0.2-0.4,0.5-0.4c0.2,0,0.5,0.2,0.5,0.4v0L305.3,30.7C305.3,30.7,305.3,30.7,305.3,30.7z M305.3,30.9h0.2
				c0,0.5,0.6,0.4,0.5,0h0.2v0.9h-0.9V30.9z M304.5,31.8c0-0.5-0.6-0.4-0.7,0h-0.5v-0.6h1.8v0.6H304.5z M305.1,33.5
				c0.9,0.1,1.3,0.6,0.7,1l-1.4,0.7c-0.4,0.2-0.4,0.5,0.2,0.8c-0.5,0.3-0.4,0.6,0.4,0.6c1.5,0,1.7,1.1,0.1,1.3
				c-1.4,0.2-0.8,0.7-1.5,0.7l-1,0c-0.7,0-1.2,0.7-2.7,0.5c-1.2-0.2-2,0.2-2.6,1.2c-0.4,0.6-0.5-0.8,0-0.8c0.3,0,0.5-0.1,0.6-0.4
				c0.5-0.8,1.2-1.4,1.8-1.4c1.9,0.1,1.6-0.2,3.4-0.2c0.5,0,1.2-0.6,0.4-1.1l-1.6-0.9c-0.5-0.3-0.4-0.5,0.1-0.6l1.2-0.3
				c0.5-0.1,0.8-0.6,0.4-0.7c-0.3-0.1-0.3-0.2-0.1-0.3c0.2-0.1,0.2-0.2-0.1-0.4c-0.3-0.2-0.2-0.4,0.1-0.6c0.6-0.3,1.2-0.5,1.9-0.5
				l2,0c0.8,0,1-0.9,0.4-1c-0.5-0.1-0.8-0.2-0.3-0.5l0.9-0.6c0.2-0.2,0.5,0.1,0.2,0.3l-0.5,0.3c-0.2,0.1-0.2,0.3,0,0.4
				c0.8,0.2,0.6,1-0.1,1.3c-0.9,0.4-2.1,0.4-3.1,0.4C304.5,32.8,304.5,33.4,305.1,33.5z"/>
			<path fill="#FFFFFF" d="M282,24.2v34.4c0,3.4,2.2,5.7,4.9,5.7h8.8c0.9,0,2.8,0,3.3,0.9c0.5-0.8,2.5-0.9,3.2-0.9h8.7
				c3.2,0,5.1-2.7,5.1-5.7V24.2H282z M306.7,25.2h0.9l0.8,1.4c0,0,0,0.1,0.1,0.2c0,0.1,0.1,0.2,0.1,0.3c0-0.1,0-0.1,0-0.2
				c0-0.1,0-0.1,0-0.2v-1.4h0.9v3h-0.9l-0.8-1.4c0,0,0-0.1-0.1-0.2c0-0.1-0.1-0.2-0.1-0.3c0,0.1,0,0.1,0,0.2c0,0.1,0,0.1,0,0.2v1.4
				h-0.9V25.2z M304.5,25.2h0.9l1,3h-0.9l-0.1-0.4h-0.9l-0.1,0.4h-0.9L304.5,25.2z M301,25.5c0.3-0.3,0.6-0.4,1-0.4
				c0.4,0,0.7,0.1,1,0.3c0.2,0.2,0.4,0.5,0.4,0.9h-0.9c0-0.2-0.1-0.3-0.1-0.4c-0.1-0.1-0.2-0.1-0.3-0.1c-0.2,0-0.3,0.1-0.4,0.2
				c-0.1,0.1-0.1,0.3-0.1,0.6c0,0.3,0,0.5,0.1,0.6c0.1,0.1,0.2,0.2,0.4,0.2c0.1,0,0.2,0,0.3-0.1c0.1-0.1,0.1-0.2,0.1-0.4h0.9
				c0,0.4-0.2,0.7-0.4,0.9c-0.2,0.2-0.6,0.3-1,0.3c-0.5,0-0.8-0.1-1.1-0.4c-0.3-0.3-0.4-0.7-0.4-1.2C300.6,26.2,300.7,25.8,301,25.5
				z M298.6,25.2h0.9l1,3h-0.9l-0.1-0.4h-0.9l-0.1,0.4h-0.9L298.6,25.2z M296.4,25.2h0.9v3h-0.9V25.2z M293.8,25.2h0.9v2.2h1.2v0.8
				h-2.1V25.2z M290.6,25.2h0.9v1.9c0,0.2,0,0.3,0.1,0.4c0.1,0.1,0.2,0.1,0.3,0.1c0.2,0,0.3,0,0.3-0.1c0.1-0.1,0.1-0.2,0.1-0.4v-1.9
				h0.9v2c0,0.4-0.1,0.7-0.3,0.9c-0.2,0.2-0.6,0.3-1,0.3c-0.4,0-0.8-0.1-1-0.3c-0.2-0.2-0.3-0.5-0.3-0.9V25.2z M287.8,25.5
				c0.3-0.3,0.6-0.4,1.1-0.4c0.4,0,0.7,0.1,1,0.3c0.2,0.2,0.4,0.5,0.4,0.9h-0.9c0-0.2-0.1-0.3-0.1-0.4c-0.1-0.1-0.2-0.1-0.3-0.1
				c-0.2,0-0.3,0.1-0.4,0.2c-0.1,0.1-0.1,0.3-0.1,0.6c0,0.3,0,0.5,0.1,0.6c0.1,0.1,0.2,0.2,0.4,0.2c0.1,0,0.3,0,0.3-0.1
				c0.1-0.1,0.1-0.2,0.1-0.4h0.9c0,0.4-0.2,0.7-0.4,0.9c-0.2,0.2-0.6,0.3-1,0.3c-0.5,0-0.8-0.1-1.1-0.4c-0.3-0.3-0.4-0.7-0.4-1.2
				C287.4,26.2,287.6,25.8,287.8,25.5z M291.1,60.8c-0.1-0.1-0.2-0.1-0.3-0.2c-0.1,0-0.2,0-0.3,0c-0.2,0-0.4,0.1-0.5,0.2
				c-0.1,0.1-0.2,0.3-0.2,0.5c0,0.2,0.1,0.4,0.2,0.5c0.1,0.1,0.3,0.2,0.5,0.2c0.1,0,0.2,0,0.3-0.1c0.1,0,0.2-0.1,0.3-0.2v0.4
				c-0.1,0.1-0.2,0.1-0.3,0.1c-0.1,0-0.2,0-0.3,0c-0.3,0-0.6-0.1-0.8-0.3c-0.2-0.2-0.3-0.5-0.3-0.8c0-0.3,0.1-0.6,0.3-0.8
				c0.2-0.2,0.5-0.3,0.8-0.3c0.1,0,0.2,0,0.3,0c0.1,0,0.2,0.1,0.3,0.1L291.1,60.8z M293.5,61.7c-0.1,0.1-0.1,0.2-0.2,0.3
				c-0.1,0.1-0.2,0.2-0.4,0.2c-0.1,0.1-0.3,0.1-0.4,0.1c-0.1,0-0.2,0-0.4-0.1c-0.1,0-0.2-0.1-0.3-0.2c-0.1-0.1-0.2-0.2-0.3-0.4
				c-0.1-0.1-0.1-0.3-0.1-0.5c0-0.1,0-0.3,0.1-0.4c0.1-0.1,0.1-0.2,0.2-0.3c0.1-0.1,0.2-0.2,0.3-0.2c0.1-0.1,0.3-0.1,0.4-0.1
				c0.1,0,0.3,0,0.4,0.1c0.1,0,0.2,0.1,0.4,0.2c0.1,0.1,0.2,0.2,0.2,0.3c0.1,0.1,0.1,0.3,0.1,0.4C293.5,61.4,293.5,61.5,293.5,61.7z
				 M295,62.3h-1.1v-2h0.4v1.6h0.7V62.3z M297,62.3h-0.4v-0.8h-0.9v0.8h-0.4v-2h0.4v0.8h0.9v-0.8h0.4V62.3z M299.2,61.5
				c0,0.3-0.1,0.5-0.2,0.6c-0.1,0.1-0.3,0.2-0.6,0.2c-0.3,0-0.5-0.1-0.7-0.2c-0.1-0.1-0.2-0.3-0.2-0.6v-1.3h0.4v1.2
				c0,0.2,0,0.3,0.1,0.4c0.1,0.1,0.2,0.1,0.3,0.1c0.2,0,0.3,0,0.3-0.1c0.1-0.1,0.1-0.2,0.1-0.4v-1.2h0.4V61.5z M300.9,62.3l-0.2-0.4
				h-0.8l-0.1,0.4h-0.5l0.8-2h0.5l0.8,2H300.9z M303.1,60.8c-0.1-0.1-0.2-0.1-0.3-0.2c-0.1,0-0.2,0-0.3,0c-0.2,0-0.4,0.1-0.5,0.2
				c-0.1,0.1-0.2,0.3-0.2,0.5c0,0.2,0.1,0.4,0.2,0.5c0.1,0.1,0.3,0.2,0.5,0.2c0.1,0,0.2,0,0.3-0.1c0.1,0,0.2-0.1,0.3-0.2l0,0.4
				c-0.1,0.1-0.2,0.1-0.3,0.1c-0.1,0-0.2,0-0.3,0c-0.3,0-0.6-0.1-0.8-0.3c-0.2-0.2-0.3-0.5-0.3-0.8c0-0.3,0.1-0.6,0.3-0.8
				c0.2-0.2,0.5-0.3,0.8-0.3c0.1,0,0.2,0,0.3,0c0.1,0,0.2,0.1,0.3,0.1L303.1,60.8z M304.8,62.3l-0.2-0.4h-0.8l-0.1,0.4h-0.5l0.8-2
				h0.5l0.8,2H304.8z M307.4,62.3H307l-0.9-1.2c0,0-0.1-0.1-0.1-0.1c0-0.1-0.1-0.1-0.1-0.2c0,0.1,0,0.1,0,0.2c0,0.1,0,0.1,0,0.2v1.2
				h-0.4v-2h0.4l0.9,1.2c0,0,0.1,0.1,0.1,0.1c0,0.1,0.1,0.1,0.1,0.2c0-0.1,0-0.1,0-0.2c0-0.1,0-0.1,0-0.2v-1.1h0.4V62.3z M310,55.8
				c0,1.9-1,2.4-2.3,2.5h-18c-1.6,0-2.5-1.2-2.5-2V29.1H310V55.8z"/>
		</g>
		<g>
			<path fill="#FFFFFF" d="M604.4,31.7c1.1-0.2,2.5-0.4,4-0.4c1.6,0,2.8,0.2,3.8,0.8c1,0.5,1.8,1.5,1.8,2.8c0,1.9-1.4,3.1-3.1,3.6
				v0.1c1.5,0.5,2.4,1.6,2.4,3.3c0,1.6-0.9,2.8-2.1,3.6c-1.3,0.9-3.2,1.2-5.7,1.2c-1.7,0-3.1-0.1-3.8-0.3L604.4,31.7z M605.2,44.2
				c0.4,0,0.8,0,1.2,0c1.8,0,3.4-0.7,3.4-2.4c0-1.5-1.3-2-2.8-2h-1L605.2,44.2z M606.5,37.5h1.1c1.8,0,3-0.7,3-2.1
				c0-1.1-0.9-1.6-2.1-1.6c-0.6,0-1,0-1.3,0.1L606.5,37.5z"/>
			<path fill="#FFFFFF" d="M627.7,35.6l-1.4,7.4c-0.3,1.4-0.5,2.6-0.6,3.6h-2.9l0.2-1.8l0,0c-1.1,1.4-2.5,2.1-3.8,2.1
				c-1.8,0-2.8-1-2.8-3.1c0-0.6,0.1-1.3,0.2-2l1.2-6.2h3.2l-1.1,5.9c-0.1,0.5-0.2,1.1-0.2,1.5c0,0.7,0.3,1.3,1.1,1.3
				c1.1,0,2.3-1.3,2.7-3.5l1-5.1H627.7z"/>
			<path fill="#FFFFFF" d="M638.6,46c-1.3,0.7-2.9,0.9-4.1,0.9c-3.2,0-4.8-1.8-4.8-4.7c0-3.4,2.4-6.9,6.4-6.9c2.2,0,3.8,1.3,3.8,3.3
				c0,2.8-2.7,3.8-7.2,3.7c0,0.3,0.1,0.8,0.3,1.1c0.4,0.6,1.2,0.9,2.1,0.9c1.2,0,2.2-0.3,3.1-0.7L638.6,46z M637,38.7
				c0-0.5-0.5-0.9-1.2-0.9c-1.5,0-2.4,1.3-2.6,2.3C635.7,40,637,39.7,637,38.7L637,38.7z"/>
			<path fill="#FFFFFF" d="M641.8,46.6l1.4-7.4c0.3-1.4,0.5-2.6,0.6-3.6h2.9l-0.2,1.8h0c1-1.4,2.4-2.1,3.9-2.1c1.8,0,2.8,1.1,2.8,3
				c0,0.5-0.1,1.3-0.2,1.8l-1.2,6.4h-3.2l1.2-6.1c0.1-0.4,0.1-0.8,0.1-1.2c0-0.8-0.3-1.3-1.1-1.3c-1.1,0-2.3,1.3-2.8,3.8l-0.9,4.9
				H641.8z"/>
			<path fill="#FFFFFF" d="M660.6,46.9c-2.8,0-4.7-1.8-4.7-4.6c0-3.8,2.7-7,6.6-7c3,0,4.7,2,4.7,4.6
				C667.2,43.9,664.4,46.9,660.6,46.9L660.6,46.9z M661,44.4c1.8,0,2.8-2.6,2.8-4.5c0-1-0.4-2.1-1.7-2.1c-1.9,0-2.8,2.7-2.8,4.4
				C659.2,43.6,659.9,44.4,661,44.4L661,44.4z"/>
			<path fill="#FFFFFF" d="M669.7,43.8c0.6,0.3,1.8,0.8,2.9,0.8c0.9,0,1.4-0.5,1.4-1c0-0.5-0.4-0.9-1.4-1.4
				c-1.3-0.6-2.3-1.6-2.3-2.9c0-2.3,2-3.8,4.9-3.8c1.3,0,2.3,0.3,2.8,0.6l-0.8,2.3c-0.4-0.2-1.2-0.5-2.2-0.5c-0.9,0-1.4,0.4-1.4,1
				c0,0.5,0.5,0.8,1.3,1.2c1.2,0.6,2.5,1.5,2.5,3c0,2.5-2.1,3.9-5.1,3.9c-1.4,0-2.7-0.4-3.4-0.9L669.7,43.8z"/>
			<path fill="#FFFFFF" d="M688,31.7c1-0.2,2.6-0.4,4.1-0.4c1.4,0,2.9,0.2,4,0.9c1,0.6,1.7,1.5,1.7,3c0,2.3-1.5,3.7-3.5,4.3v0.1
				c0.9,0.4,1.3,1.4,1.4,2.8c0.2,1.7,0.3,3.7,0.6,4.3H693c-0.1-0.4-0.3-1.7-0.4-3.6c-0.2-1.9-0.8-2.4-2.1-2.4h-1l-1.1,6h-3.2
				L688,31.7z M690,38.2h1.3c1.8,0,3-1.1,3-2.6c0-1.2-1-1.8-2.3-1.8c-0.6,0-1,0-1.3,0.1L690,38.2z"/>
			<path fill="#FFFFFF" d="M708.2,46c-1.3,0.7-2.9,0.9-4.1,0.9c-3.2,0-4.8-1.8-4.8-4.7c0-3.4,2.4-6.9,6.4-6.9c2.2,0,3.8,1.3,3.8,3.3
				c0,2.8-2.7,3.8-7.1,3.7c0,0.3,0.1,0.8,0.3,1.1c0.4,0.6,1.2,0.9,2.1,0.9c1.2,0,2.2-0.3,3.1-0.7L708.2,46z M706.5,38.7
				c0-0.5-0.5-0.9-1.2-0.9c-1.5,0-2.4,1.3-2.6,2.3C705.3,40,706.5,39.7,706.5,38.7L706.5,38.7z"/>
			<path fill="#FFFFFF" d="M711.8,43.8c0.6,0.3,1.8,0.8,2.9,0.8c0.9,0,1.4-0.5,1.4-1c0-0.5-0.4-0.9-1.4-1.4
				c-1.3-0.6-2.3-1.6-2.3-2.9c0-2.3,2-3.8,4.9-3.8c1.3,0,2.3,0.3,2.8,0.6l-0.8,2.3c-0.4-0.2-1.2-0.5-2.2-0.5c-0.9,0-1.4,0.4-1.4,1
				c0,0.5,0.5,0.8,1.3,1.2c1.2,0.6,2.5,1.5,2.5,3c0,2.5-2.1,3.9-5.1,3.9c-1.4,0-2.7-0.4-3.4-0.9L711.8,43.8z"/>
			<path fill="#FFFFFF" d="M733.8,35.6l-1.4,7.4c-0.3,1.4-0.5,2.6-0.6,3.6h-2.9l0.2-1.8l0,0c-1.1,1.4-2.5,2.1-3.8,2.1
				c-1.8,0-2.8-1-2.8-3.1c0-0.6,0.1-1.3,0.2-2l1.2-6.2h3.2l-1.1,5.9c-0.1,0.5-0.2,1.1-0.2,1.5c0,0.7,0.3,1.3,1.1,1.3
				c1.1,0,2.3-1.3,2.7-3.5l1-5.1H733.8z"/>
			<path fill="#FFFFFF" d="M735.6,46.6l3.1-16h3.2l-3.1,16H735.6z"/>
			<path fill="#FFFFFF" d="M748.8,32.6l-0.6,3h2.4l-0.5,2.5h-2.3l-0.7,3.7c-0.1,0.5-0.2,1-0.2,1.4c0,0.5,0.2,0.9,0.9,0.9
				c0.3,0,0.6,0,0.9,0l-0.4,2.5c-0.4,0.2-1.2,0.2-1.9,0.2c-2,0-2.9-1-2.9-2.4c0-0.6,0.1-1.2,0.2-2l0.8-4.4h-1.4l0.5-2.5h1.4l0.4-2.1
				L748.8,32.6z"/>
			<path fill="#FFFFFF" d="M758.8,46.6c0-0.6,0.1-1.4,0.1-2.2h0c-1,1.8-2.5,2.4-3.7,2.4c-2,0-3.3-1.5-3.3-3.8c0-3.7,2.5-7.7,7.9-7.7
				c1.3,0,2.7,0.2,3.6,0.5l-1.1,5.8c-0.3,1.4-0.5,3.6-0.5,5H758.8z M759.7,37.9c-0.2,0-0.5-0.1-0.9-0.1c-2.1,0-3.6,2.6-3.6,4.6
				c0,1.1,0.4,1.8,1.3,1.8c1,0,2.2-1.1,2.7-3.8L759.7,37.9z"/>
			<path fill="#FFFFFF" d="M778.1,30.6l-2.2,11.7c-0.2,1.4-0.4,3-0.5,4.3h-3l0.2-1.8h0c-1,1.5-2.3,2-3.6,2c-1.9,0-3.4-1.5-3.4-4.2
				c0-3.8,2.8-7.4,6.9-7.4c0.5,0,1,0.1,1.5,0.3l1-5H778.1z M773.4,38.2c-0.3-0.2-0.7-0.4-1.3-0.4c-1.9,0-3.3,2.2-3.3,4.4
				c0,1.3,0.6,2.1,1.5,2.1c0.9,0,2.1-1,2.5-3.1L773.4,38.2z"/>
			<path fill="#FFFFFF" d="M783.9,46.9c-2.8,0-4.7-1.8-4.7-4.6c0-3.8,2.7-7,6.6-7c3,0,4.7,2,4.7,4.6
				C790.5,43.9,787.7,46.9,783.9,46.9L783.9,46.9z M784.3,44.4c1.8,0,2.8-2.6,2.8-4.5c0-1-0.5-2.1-1.7-2.1c-1.9,0-2.8,2.7-2.8,4.4
				C782.5,43.6,783.2,44.4,784.3,44.4L784.3,44.4z"/>
			<path fill="#FFFFFF" d="M793,43.8c0.6,0.3,1.8,0.8,2.9,0.8c0.9,0,1.4-0.5,1.4-1c0-0.5-0.4-0.9-1.4-1.4c-1.3-0.6-2.3-1.6-2.3-2.9
				c0-2.3,2-3.8,4.8-3.8c1.3,0,2.3,0.3,2.8,0.6l-0.8,2.3c-0.5-0.2-1.2-0.5-2.2-0.5c-0.9,0-1.4,0.4-1.4,1c0,0.5,0.5,0.8,1.3,1.2
				c1.2,0.6,2.5,1.5,2.5,3c0,2.5-2.1,3.9-5.1,3.9c-1.4,0-2.7-0.4-3.4-0.9L793,43.8z"/>
		</g>
		<g>
			<path fill="#FFFFFF" d="M342.6,43.3c0,1.5-0.6,2.6-1.7,3.5c-1,0.7-2.3,1.1-3.8,1.1c-1,0-2-0.2-3-0.7v-3.1
				c0.5,0.6,0.9,1.1,1.3,1.3c0.5,0.4,1.1,0.5,1.8,0.5c0.7,0,1.4-0.2,1.9-0.7c0.6-0.5,0.9-1.1,0.9-1.8c0-0.8-0.5-1.5-1.5-2.3
				l-2.8-2.1c-1-0.9-1.5-2-1.5-3.1c0-1.4,0.5-2.4,1.5-3.2c0.9-0.7,2.1-1.1,3.5-1.1c0.9,0,1.9,0.2,2.8,0.6V35
				c-0.6-0.6-1.1-0.9-1.3-1.1c-0.5-0.3-1-0.4-1.6-0.4c-0.6,0-1.2,0.2-1.6,0.6c-0.4,0.4-0.7,0.9-0.7,1.5c0,0.7,0.5,1.5,1.5,2.2
				l2.8,2.1C342.1,41,342.6,42.1,342.6,43.3z"/>
			<path fill="#FFFFFF" d="M349.6,47.7h-3.5c0.4-1.4,0.5-2.7,0.5-4.1v-7.1c0-1.8-0.2-3.3-0.5-4.7h3.5c-0.4,1.3-0.5,2.9-0.5,4.7v7
				C349,44.9,349.2,46.3,349.6,47.7z"/>
			<path fill="#FFFFFF" d="M363.2,44.6l-1.3,3.1h-8.4c0.4-1.2,0.5-2.9,0.5-5.3v-5.5c0-1.7-0.2-3.4-0.5-5h8.7l-1.2,2.5
				c-1.1-0.6-2.2-0.8-3.4-0.8c-0.2,0-0.5,0-1.1,0v5.1h5.2l-1.5,2.5c-1-0.5-2.2-0.8-3.7-0.8v5.5c1.9-0.1,3-0.2,3.5-0.3
				C361.1,45.4,362.2,45.1,363.2,44.6z"/>
			<path fill="#FFFFFF" d="M382.9,31.9c-0.6,0.8-0.9,1.6-1.1,2.4c-0.1,0.6-0.2,1.5-0.2,2.6v5.9c0,2,0.2,3.6,0.5,4.9h-3.5
				c0.4-1.4,0.5-3.1,0.5-5v-6.3l-5.2,6.7l-5.2-6.4v6.5c0,1.6,0.2,3.1,0.5,4.6h-3.5c0.4-1.3,0.5-2.9,0.5-4.9v-8.8l-1.7-2.1h3.7
				c0.1,0.5,0.2,0.9,0.5,1.3c0,0,0.3,0.4,0.9,1.1l4.3,5.2l3.8-4.8c0.5-0.7,0.9-1.1,1-1.3c0.3-0.5,0.5-1,0.7-1.5H382.9z"/>
			<path fill="#FFFFFF" d="M394.4,36.5c0,1.8-0.7,3.1-2,3.9c-0.9,0.5-2.4,0.8-4.4,0.9v2.2c0,1.1,0.2,2.5,0.5,4.1H385
				c0.4-1.4,0.5-2.6,0.5-3.8v-7c0-1.7-0.2-3.4-0.5-5.1h3.8C392.5,31.9,394.4,33.4,394.4,36.5z M391.8,36.9c0-1-0.2-1.8-0.7-2.4
				c-0.5-0.7-1.3-1.1-2.2-1.1h-0.9v6.7c1.3-0.1,2.2-0.3,2.8-0.7C391.4,38.9,391.8,38.1,391.8,36.9z"/>
			<path fill="#FFFFFF" d="M409.2,47.7h-2.8c-1.9-1.7-3.9-4.1-6.1-7.2v2.2c0,1.8,0.2,3.4,0.5,5h-3.5c0.4-1.1,0.5-2.7,0.5-4.7v-6.7
				c0-1.3-0.2-2.8-0.5-4.5h1.7c2.2,0,3.9,0.2,5,0.7c1.7,0.7,2.6,2,2.6,3.9c0,1.8-1,3.2-3.1,4C405,42.9,406.9,45.3,409.2,47.7z
				 M404,36.5c0-1.9-1.2-2.9-3.7-3.1v6.4c1.1-0.1,1.9-0.4,2.6-0.9C403.6,38.3,404,37.5,404,36.5z"/>
			<path fill="#FFFFFF" d="M420.9,44.6l-1.3,3.1h-8.4c0.4-1.2,0.5-2.9,0.5-5.3v-5.5c0-1.7-0.2-3.4-0.5-5h8.7l-1.2,2.5
				c-1.1-0.6-2.2-0.8-3.4-0.8c-0.2,0-0.5,0-1.1,0v5.1h5.2l-1.5,2.5c-1-0.5-2.2-0.8-3.7-0.8v5.5c1.9-0.1,3-0.2,3.5-0.3
				C418.8,45.4,419.8,45.1,420.9,44.6z"/>
			<path fill="#FFFFFF" d="M441.9,31.9l-0.8,2.5c-0.8-0.4-1.5-0.6-2.1-0.7c-0.5-0.1-1.2-0.1-2.2-0.1v8.8c0,2.3,0.2,4.1,0.5,5.3h-3.5
				c0.4-1.1,0.6-2.9,0.6-5.4v-8.7c-1.1,0.1-2,0.1-2.6,0.2c-0.9,0.1-1.7,0.3-2.5,0.6l0.9-2.5H441.9z"/>
			<path fill="#FFFFFF" d="M456.1,47.7h-2.8c-1.9-1.7-3.9-4.1-6.1-7.2v2.2c0,1.8,0.2,3.4,0.5,5h-3.5c0.4-1.1,0.5-2.7,0.5-4.7v-6.7
				c0-1.3-0.2-2.8-0.5-4.5h1.7c2.2,0,3.9,0.2,5,0.7c1.7,0.7,2.6,2,2.6,3.9c0,1.8-1,3.2-3.1,4C451.9,42.9,453.8,45.3,456.1,47.7z
				 M451,36.5c0-1.9-1.2-2.9-3.7-3.1v6.4c1.1-0.1,1.9-0.4,2.6-0.9C450.6,38.3,451,37.5,451,36.5z"/>
			<path fill="#FFFFFF" d="M472.6,47.7h-3.8c-0.1-0.8-0.3-1.7-0.6-2.5c-0.1-0.3-0.5-1.1-1.1-2.4h-5.7c-0.5,1.2-0.8,2.1-0.9,2.4
				c-0.3,0.9-0.4,1.8-0.5,2.5h-3.9c0.8-0.9,1.8-2.6,3-5.2l5.2-10.8l5.3,11.2C470.6,44.7,471.6,46.3,472.6,47.7z M466.3,40.8l-2-4.7
				l-2,4.7H466.3z"/>
			<path fill="#FFFFFF" d="M484.3,43.3c0,1.9-1,3.2-2.9,3.8c-1.1,0.4-2.8,0.5-5.2,0.5h-1.4c0.4-1.3,0.5-2.8,0.5-4.5v-6.7
				c0-1.5-0.2-3-0.5-4.5h1.6c2.1,0,3.7,0.2,4.6,0.5c1.7,0.6,2.6,1.7,2.6,3.4c0,1.4-0.8,2.6-2.4,3.5
				C483.3,40.1,484.3,41.4,484.3,43.3z M481,36c0-1.6-1.1-2.5-3.2-2.6v5.3C479.9,38.6,481,37.7,481,36z M481.7,43.1
				c0-1.1-0.4-1.9-1.2-2.4c-0.7-0.5-1.6-0.7-2.7-0.7v6.2C480.4,45.9,481.7,44.9,481.7,43.1z"/>
			<path fill="#FFFFFF" d="M502.2,47.7h-3.8c-0.1-0.8-0.3-1.7-0.6-2.5c-0.1-0.3-0.5-1.1-1.1-2.4h-5.7c-0.5,1.2-0.8,2.1-0.9,2.4
				c-0.3,0.9-0.4,1.8-0.5,2.5h-3.9c0.8-0.9,1.8-2.6,3-5.2l5.2-10.8l5.3,11.2C500.2,44.7,501.2,46.3,502.2,47.7z M495.8,40.8l-2-4.7
				l-2,4.7H495.8z"/>
			<path fill="#FFFFFF" d="M509.8,31.9c-0.4,1.2-0.7,3-0.7,5.2c0,0.6,0,1.5,0,2.6c0,1.1,0,1.9,0,2.3c0,2.1,0,3.4-0.1,4.1
				c-0.2,1.6-0.6,2.8-1.2,3.6c-0.8,1-2,1.6-3.7,1.6c-0.5,0-1-0.1-1.3-0.2c1.8-0.9,2.9-2.2,3.4-3.8c0.3-0.9,0.4-2.7,0.4-5.3v-8.3
				c-0.9,0-2,0.2-3.4,0.4l0.8-2.1H509.8z"/>
			<path fill="#FFFFFF" d="M528.3,47.7h-3.8c-0.1-0.8-0.3-1.7-0.6-2.5c-0.1-0.3-0.5-1.1-1.1-2.4h-5.7c-0.5,1.2-0.8,2.1-0.9,2.4
				c-0.3,0.9-0.4,1.8-0.5,2.5h-3.9c0.8-0.9,1.8-2.6,3-5.2l5.2-10.8l5.3,11.2C526.3,44.7,527.3,46.3,528.3,47.7z M522,40.8l-2-4.7
				l-2,4.7H522z"/>
			<path fill="#FFFFFF" d="M544.4,47.7h-3.1c-0.3-0.7-0.9-1.6-1.9-3l-5.8-7.9v5.8c0,2.1,0.2,3.8,0.5,5h-3.2c0.4-1.4,0.5-3.1,0.5-5
				v-8.5l-1.9-2.3h3.7c0.4,0.7,1.1,1.7,1.9,2.9l6.6,9.1v-6.7c0-2.2-0.2-3.9-0.5-5.3h3.2c-0.4,1.6-0.6,3.4-0.6,5.4l0,5.9
				C543.9,44.9,544,46.4,544.4,47.7z"/>
			<path fill="#FFFFFF" d="M560,39.9c0,2.3-0.8,4.2-2.3,5.6c-1.5,1.4-3.4,2.1-5.8,2.1l-4.1,0c0.4-1.2,0.5-2.8,0.5-4.9v-5.7
				c0-1.8-0.2-3.6-0.5-5.2h1.6C556.6,31.9,560,34.5,560,39.9z M557.5,39.9c0-2-0.6-3.5-1.8-4.6c-1.2-1.1-2.8-1.6-4.7-1.6v12.3
				C555.3,45.6,557.5,43.6,557.5,39.9z"/>
			<path fill="#FFFFFF" d="M578.8,39.8c0,2.3-0.8,4.2-2.3,5.8c-1.5,1.6-3.4,2.3-5.7,2.3c-2.4,0-4.3-0.8-5.9-2.3
				c-1.5-1.5-2.3-3.5-2.3-5.9c0-2.3,0.8-4.3,2.4-5.8c1.6-1.5,3.6-2.2,5.9-2.2c2.3,0,4.2,0.8,5.7,2.4
				C578.1,35.5,578.8,37.5,578.8,39.8z M576.2,40.2c0-1.7-0.5-3.2-1.5-4.5c-1.1-1.4-2.5-2.1-4.2-2.1c-1.6,0-2.9,0.5-3.9,1.6
				c-1,1.1-1.4,2.4-1.4,4c0,1.8,0.5,3.3,1.5,4.6c1.1,1.4,2.5,2.1,4.3,2.1c1.6,0,2.8-0.6,3.8-1.7C575.7,43.2,576.2,41.8,576.2,40.2z"
				/>
		</g>
	</g>
</g>
</svg>
